<svg width="158" height="110" viewBox="0 0 158 110" fill="none" xmlns="http://www.w3.org/2000/svg">
<path d="M77.814 44.115C78.0679 44.0064 78.1857 43.7126 78.0772 43.4587C77.9686 43.2048 77.6747 43.087 77.4208 43.1956L77.814 44.115ZM80.2527 52.6366C80.5185 52.5619 80.6735 52.2858 80.5988 52.02C80.5241 51.7542 80.248 51.5992 79.9822 51.6739L80.2527 52.6366ZM70.5957 52.3012C71.2084 50.2934 72.0301 48.6742 73.1788 47.3482C74.3263 46.0234 75.821 44.9674 77.814 44.115L77.4208 43.1956C75.3147 44.0963 73.6869 45.2343 72.4229 46.6934C71.1602 48.1511 70.2813 49.9054 69.6392 52.0093L70.5957 52.3012ZM74.5686 57.2028C75.4001 55.4626 77.3521 53.4517 80.2527 52.6366L79.9822 51.6739C76.7882 52.5715 74.6146 54.7871 73.6663 56.7717L74.5686 57.2028Z" fill="#45140A"/>
<path d="M40.1174 34.6553C40.1174 39 43.5484 46.8094 47.6174 51.1553C52.2584 46.1663 55.6174 39.5 55.6174 35.6553C55.6174 25.5 40.1174 25 40.1174 34.6553Z" fill="#45140A"/>
<path d="M17.7034 54.4289C25.5371 57.3476 34.7946 55.147 42.1063 51.7458C37.6459 43.6658 30.5001 36.1002 25.5372 34.9032C13.5001 32 8.50011 51 17.7034 54.4289Z" fill="#FFB503"/>
<path d="M48.1174 54.6553C50.4093 52.2387 52.0199 51.2235 55.1174 49.6553C59.5073 60.8761 62.7348 66.9942 69.6174 77.6553C66.2282 79.0676 64.2731 79.5833 60.6174 79.6553C54.2717 69.7627 51.4194 64.2785 48.1174 54.6553Z" fill="#FFB503"/>
<path d="M39.2497 66.2475C40.4905 64.3272 43.2258 60.1051 45.1174 58.6553C48.1174 66.2475 51.6174 73.6553 56.6174 80.1553C52.6174 81.1553 49.6174 80.1553 46.6174 79.6553C42.1174 73.1553 41.6174 72.6553 39.2497 66.2475Z" fill="#45140A"/>
<path d="M72.1174 75.1553C65.465 65.4873 62.4646 59.6447 58.1174 48.6553C64.7043 48.0966 72.6174 51.6553 74.1174 55.1553C77.1174 60.1553 77.2584 68.1758 72.1174 75.1553Z" fill="#45140A"/>
<path d="M42.1174 79.6553C40.55 75.9512 39.5852 73.9689 37.6174 70.6553C35.9196 72.9269 35.2579 74.4444 34.6174 77.6553C37.0526 78.9313 38.7549 79.3078 42.1174 79.6553Z" fill="#FFB503"/>
<path d="M21.0711 70.7609L2.84097 71.3646" stroke="black" stroke-width="2" stroke-linecap="round"/>
<path d="M24.7713 81.5494L0.999887 92.2763" stroke="black" stroke-width="2" stroke-linecap="round"/>
<path d="M65.6173 60.9872C66.3738 62.5 68.7614 64.5473 73.1174 65.9872C73.1574 62.2321 73.1175 59.9872 72.1174 57.9872C69.8734 53.5 62.6232 55 65.6173 60.9872Z" fill="white"/>
<path d="M34.7926 92.1617L21.0677 105.098" stroke="black" stroke-width="2" stroke-linecap="round"/>
<path d="M77.1188 27.937C76.5387 27.3455 75.589 27.3363 74.9975 27.9164C74.4061 28.4965 74.3969 29.4462 74.9769 30.0376L77.1188 27.937ZM102.619 53.937L77.1188 27.937L74.9769 30.0376L100.477 56.0376L102.619 53.937Z" fill="black"/>
<path d="M101.548 55.4H127.548" stroke="black" stroke-width="3" stroke-linecap="round"/>
<circle cx="103" cy="55" r="4" fill="black"/>
<rect x="100" y="12" width="6" height="6" fill="black"/>
<rect x="138.048" y="51.9873" width="6" height="6" fill="black"/>
<rect x="100.048" y="91.9873" width="6" height="6" fill="black"/>
<path fill-rule="evenodd" clip-rule="evenodd" d="M155 55C155 83.7188 131.719 107 103 107C85.6795 107 70.3368 98.5317 60.8864 85.5094C59.7833 85.713 58.6586 85.8551 57.5161 85.9322C67.4155 100.46 84.0938 110 103 110C133.376 110 158 85.3757 158 55C158 24.6243 133.376 0 103 0C82.8492 0 65.2295 10.8368 55.6506 27.0004C56.7973 27.0061 57.9285 27.0772 59.0407 27.2103C68.2584 12.6597 84.5012 3 103 3C131.719 3 155 26.2812 155 55Z" fill="black"/>
</svg>
