<svg width="3485" height="1155" viewBox="0 0 3485 1155" fill="none" xmlns="http://www.w3.org/2000/svg">
<path d="M98 1154.19L164.651 1036.89C168.826 1029.54 176.624 1025 185.074 1025L304.543 1025C312.993 1025 320.791 1029.54 324.966 1036.89L391.617 1154.19" stroke="#FFB503" stroke-width="3"/>
<path d="M597 1154L663.651 1036.69C667.826 1029.35 675.624 1024.81 684.074 1024.81L803.543 1024.81C811.993 1024.81 819.791 1029.35 823.966 1036.69L890.617 1154" stroke="#FFB503" stroke-width="3"/>
<path d="M1096 1153.81L1162.65 1036.5C1166.83 1029.16 1174.62 1024.62 1183.07 1024.62L1302.54 1024.62C1310.99 1024.62 1318.79 1029.16 1322.97 1036.5L1389.62 1153.81" stroke="#FFB503" stroke-width="3"/>
<path d="M1595 1153.62L1661.65 1036.31C1665.83 1028.96 1673.62 1024.43 1682.07 1024.43L1801.54 1024.43C1809.99 1024.43 1817.79 1028.96 1821.97 1036.31L1888.62 1153.62" stroke="#FFB503" stroke-width="3"/>
<path d="M2094 1153.43L2160.65 1036.12C2164.83 1028.77 2172.62 1024.23 2181.07 1024.23L2300.54 1024.23C2308.99 1024.23 2316.79 1028.77 2320.97 1036.12L2387.62 1153.43" stroke="#FFB503" stroke-width="3"/>
<path d="M2593 1153.23L2659.65 1035.93C2663.83 1028.58 2671.62 1024.04 2680.07 1024.04L2799.54 1024.04C2807.99 1024.04 2815.79 1028.58 2819.97 1035.93L2886.62 1153.23" stroke="#FFB503" stroke-width="3"/>
<path d="M3092 1153.04L3158.65 1035.74C3162.83 1028.39 3170.62 1023.85 3179.07 1023.85L3298.54 1023.85C3306.99 1023.85 3314.79 1028.39 3318.97 1035.74L3385.62 1153.04" stroke="#FFB503" stroke-width="3"/>
<path d="M390.852 2.19145L324.2 119.498C320.026 126.844 312.227 131.383 303.777 131.383L184.309 131.383C175.859 131.383 168.06 126.844 163.886 119.498L97.2346 2.19144" stroke="#FFB503" stroke-width="3"/>
<path d="M889.852 2.00005L823.2 119.306C819.026 126.653 811.227 131.192 802.777 131.192L683.309 131.192C674.859 131.192 667.06 126.653 662.886 119.306L596.235 2.00003" stroke="#FFB503" stroke-width="3"/>
<path d="M1388.85 1.80864L1322.2 119.115C1318.03 126.462 1310.23 131 1301.78 131L1182.31 131C1173.86 131 1166.06 126.462 1161.89 119.115L1095.23 1.80863" stroke="#FFB503" stroke-width="3"/>
<path d="M1887.85 1.61723L1821.2 118.923C1817.03 126.27 1809.23 130.809 1800.78 130.809L1681.31 130.809C1672.86 130.809 1665.06 126.27 1660.89 118.923L1594.23 1.61722" stroke="#FFB503" stroke-width="3"/>
<path d="M2386.85 1.42583L2320.2 118.732C2316.03 126.079 2308.23 130.617 2299.78 130.617L2180.31 130.617C2171.86 130.617 2164.06 126.079 2159.89 118.732L2093.23 1.42581" stroke="#FFB503" stroke-width="3"/>
<path d="M2885.85 1.23442L2819.2 118.541C2815.03 125.887 2807.23 130.426 2798.78 130.426L2679.31 130.426C2670.86 130.426 2663.06 125.887 2658.89 118.541L2592.23 1.23441" stroke="#FFB503" stroke-width="3"/>
<path d="M3384.85 1.04301L3318.2 118.349C3314.03 125.696 3306.23 130.234 3297.78 130.234L3178.31 130.234C3169.86 130.234 3162.06 125.696 3157.89 118.349L3091.23 1.043" stroke="#FFB503" stroke-width="3"/>
<path d="M0.808685 278.383L60.543 278.383C68.9929 278.383 76.7917 273.844 80.966 266.498L141.024 160.796C145.113 153.6 145.113 144.783 141.024 137.588L80.966 31.8855C76.7917 24.5386 68.9929 20.0001 60.543 20.0001L0.808697 20.0001" stroke="#FFB503" stroke-width="3"/>
<path d="M1.00009 566.383L60.7344 566.383C69.1843 566.383 76.9831 561.844 81.1574 554.498L141.215 448.796C145.304 441.6 145.304 432.783 141.215 425.588L81.1574 319.885C76.9831 312.539 69.1843 308 60.7344 308L1.0001 308" stroke="#FFB503" stroke-width="3"/>
<path d="M1.00009 854.383L60.7344 854.383C69.1843 854.383 76.9831 849.844 81.1574 842.498L141.215 736.796C145.304 729.6 145.304 720.783 141.215 713.588L81.1574 607.885C76.9831 600.539 69.1843 596 60.7344 596L1.0001 596" stroke="#FFB503" stroke-width="3"/>
<path d="M1.00009 1142.38L60.7344 1142.38C69.1843 1142.38 76.9831 1137.84 81.1574 1130.5L141.215 1024.8C145.304 1017.6 145.304 1008.78 141.215 1001.59L81.1574 895.885C76.9831 888.539 69.1843 884 60.7344 884L1.0001 884" stroke="#FFB503" stroke-width="3"/>
<path d="M383.337 301.055C387.164 294.318 387.164 286.065 383.337 279.329L323.279 173.626C319.371 166.749 312.071 162.5 304.16 162.5L184.692 162.5C176.781 162.5 169.481 166.749 165.573 173.626L105.515 279.329C101.687 286.065 101.687 294.318 105.515 301.055L165.573 406.757C169.48 413.634 176.781 417.883 184.692 417.883L304.16 417.883C312.071 417.883 319.371 413.634 323.279 406.757L383.337 301.055Z" stroke="#FFB503" stroke-width="3"/>
<path d="M882.337 300.863C886.164 294.127 886.164 285.873 882.337 279.137L822.279 173.435C818.371 166.557 811.071 162.309 803.16 162.309L683.692 162.309C675.781 162.309 668.481 166.557 664.573 173.435L604.515 279.137C600.687 285.873 600.687 294.127 604.515 300.863L664.573 406.565C668.48 413.443 675.781 417.692 683.692 417.692L803.16 417.692C811.071 417.692 818.371 413.443 822.279 406.565L882.337 300.863Z" stroke="#FFB503" stroke-width="3"/>
<path d="M1381.34 300.672C1385.16 293.935 1385.16 285.682 1381.34 278.946L1321.28 173.244C1317.37 166.366 1310.07 162.117 1302.16 162.117L1182.69 162.117C1174.78 162.117 1167.48 166.366 1163.57 173.244L1103.51 278.946C1099.69 285.682 1099.69 293.935 1103.51 300.672L1163.57 406.374C1167.48 413.252 1174.78 417.5 1182.69 417.5L1302.16 417.5C1310.07 417.5 1317.37 413.251 1321.28 406.374L1381.34 300.672Z" stroke="#FFB503" stroke-width="3"/>
<path d="M1880.34 300.48C1884.16 293.744 1884.16 285.491 1880.34 278.754L1820.28 173.052C1816.37 166.175 1809.07 161.926 1801.16 161.926L1681.69 161.926C1673.78 161.926 1666.48 166.175 1662.57 173.052L1602.51 278.754C1598.69 285.491 1598.69 293.744 1602.51 300.48L1662.57 406.182C1666.48 413.06 1673.78 417.309 1681.69 417.309L1801.16 417.309C1809.07 417.309 1816.37 413.06 1820.28 406.182L1880.34 300.48Z" stroke="#FFB503" stroke-width="3"/>
<path d="M2379.34 300.289C2383.16 293.553 2383.16 285.299 2379.34 278.563L2319.28 172.861C2315.37 165.983 2308.07 161.734 2300.16 161.734L2180.69 161.734C2172.78 161.734 2165.48 165.983 2161.57 172.861L2101.51 278.563C2097.69 285.299 2097.69 293.553 2101.51 300.289L2161.57 405.991C2165.48 412.869 2172.78 417.117 2180.69 417.117L2300.16 417.117C2308.07 417.117 2315.37 412.869 2319.28 405.991L2379.34 300.289Z" stroke="#FFB503" stroke-width="3"/>
<path d="M2878.34 300.097C2882.16 293.361 2882.16 285.108 2878.34 278.372L2818.28 172.669C2814.37 165.792 2807.07 161.543 2799.16 161.543L2679.69 161.543C2671.78 161.543 2664.48 165.792 2660.57 172.669L2600.51 278.372C2596.69 285.108 2596.69 293.361 2600.51 300.097L2660.57 405.8C2664.48 412.677 2671.78 416.926 2679.69 416.926L2799.16 416.926C2807.07 416.926 2814.37 412.677 2818.28 405.8L2878.34 300.097Z" stroke="#FFB503" stroke-width="3"/>
<path d="M3377.34 299.906C3381.16 293.17 3381.16 284.916 3377.34 278.18L3317.28 172.478C3313.37 165.6 3306.07 161.352 3298.16 161.352L3178.69 161.352C3170.78 161.352 3163.48 165.6 3159.57 172.478L3099.51 278.18C3095.69 284.916 3095.69 293.17 3099.51 299.906L3159.57 405.608C3163.48 412.486 3170.78 416.735 3178.69 416.735L3298.16 416.735C3306.07 416.735 3313.37 412.486 3317.28 405.608L3377.34 299.906Z" stroke="#FFB503" stroke-width="3"/>
<path d="M383.72 589.055C387.547 582.318 387.547 574.065 383.72 567.329L323.662 461.626C319.754 454.749 312.453 450.5 304.543 450.5L185.074 450.5C177.164 450.5 169.863 454.749 165.956 461.626L105.898 567.329C102.07 574.065 102.07 582.318 105.898 589.055L165.956 694.757C169.863 701.634 177.164 705.883 185.074 705.883L304.543 705.883C312.453 705.883 319.754 701.634 323.662 694.757L383.72 589.055Z" stroke="#FFB503" stroke-width="3"/>
<path d="M882.72 588.863C886.547 582.127 886.547 573.873 882.72 567.137L822.662 461.435C818.754 454.557 811.453 450.309 803.543 450.309L684.074 450.309C676.164 450.309 668.863 454.557 664.956 461.435L604.898 567.137C601.07 573.873 601.07 582.127 604.898 588.863L664.956 694.565C668.863 701.443 676.164 705.692 684.074 705.692L803.543 705.692C811.453 705.692 818.754 701.443 822.662 694.565L882.72 588.863Z" stroke="#FFB503" stroke-width="3"/>
<path d="M1381.72 588.672C1385.55 581.935 1385.55 573.682 1381.72 566.946L1321.66 461.244C1317.75 454.366 1310.45 450.117 1302.54 450.117L1183.07 450.117C1175.16 450.117 1167.86 454.366 1163.96 461.244L1103.9 566.946C1100.07 573.682 1100.07 581.935 1103.9 588.672L1163.96 694.374C1167.86 701.252 1175.16 705.5 1183.07 705.5L1302.54 705.5C1310.45 705.5 1317.75 701.251 1321.66 694.374L1381.72 588.672Z" stroke="#FFB503" stroke-width="3"/>
<path d="M1880.72 588.48C1884.55 581.744 1884.55 573.491 1880.72 566.754L1820.66 461.052C1816.75 454.175 1809.45 449.926 1801.54 449.926L1682.07 449.926C1674.16 449.926 1666.86 454.175 1662.96 461.052L1602.9 566.754C1599.07 573.491 1599.07 581.744 1602.9 588.48L1662.96 694.182C1666.86 701.06 1674.16 705.309 1682.07 705.309L1801.54 705.309C1809.45 705.309 1816.75 701.06 1820.66 694.182L1880.72 588.48Z" stroke="#FFB503" stroke-width="3"/>
<path d="M2379.72 588.289C2383.55 581.553 2383.55 573.299 2379.72 566.563L2319.66 460.861C2315.75 453.983 2308.45 449.734 2300.54 449.734L2181.07 449.734C2173.16 449.734 2165.86 453.983 2161.96 460.861L2101.9 566.563C2098.07 573.299 2098.07 581.553 2101.9 588.289L2161.96 693.991C2165.86 700.869 2173.16 705.117 2181.07 705.117L2300.54 705.117C2308.45 705.117 2315.75 700.869 2319.66 693.991L2379.72 588.289Z" stroke="#FFB503" stroke-width="3"/>
<path d="M2878.72 588.097C2882.55 581.361 2882.55 573.108 2878.72 566.372L2818.66 460.669C2814.75 453.792 2807.45 449.543 2799.54 449.543L2680.07 449.543C2672.16 449.543 2664.86 453.792 2660.96 460.669L2600.9 566.372C2597.07 573.108 2597.07 581.361 2600.9 588.097L2660.96 693.8C2664.86 700.677 2672.16 704.926 2680.07 704.926L2799.54 704.926C2807.45 704.926 2814.75 700.677 2818.66 693.8L2878.72 588.097Z" stroke="#FFB503" stroke-width="3"/>
<path d="M3377.72 587.906C3381.55 581.17 3381.55 572.916 3377.72 566.18L3317.66 460.478C3313.75 453.6 3306.45 449.352 3298.54 449.352L3179.07 449.352C3171.16 449.352 3163.86 453.6 3159.96 460.478L3099.9 566.18C3096.07 572.916 3096.07 581.17 3099.9 587.906L3159.96 693.608C3163.86 700.486 3171.16 704.735 3179.07 704.735L3298.54 704.735C3306.45 704.735 3313.75 700.486 3317.66 693.608L3377.72 587.906Z" stroke="#FFB503" stroke-width="3"/>
<path d="M382.72 877.055C386.547 870.318 386.547 862.065 382.72 855.329L322.662 749.626C318.754 742.749 311.453 738.5 303.543 738.5L184.074 738.5C176.164 738.5 168.863 742.749 164.956 749.626L104.898 855.329C101.07 862.065 101.07 870.318 104.898 877.055L164.956 982.757C168.863 989.634 176.164 993.883 184.074 993.883L303.543 993.883C311.453 993.883 318.754 989.634 322.662 982.757L382.72 877.055Z" stroke="#FFB503" stroke-width="3"/>
<path d="M881.72 876.863C885.547 870.127 885.547 861.873 881.72 855.137L821.662 749.435C817.754 742.557 810.453 738.309 802.543 738.309L683.074 738.309C675.164 738.309 667.863 742.557 663.956 749.435L603.898 855.137C600.07 861.873 600.07 870.127 603.898 876.863L663.956 982.565C667.863 989.443 675.164 993.692 683.074 993.692L802.543 993.692C810.453 993.692 817.754 989.443 821.662 982.565L881.72 876.863Z" stroke="#FFB503" stroke-width="3"/>
<path d="M1380.72 876.672C1384.55 869.935 1384.55 861.682 1380.72 854.946L1320.66 749.244C1316.75 742.366 1309.45 738.117 1301.54 738.117L1182.07 738.117C1174.16 738.117 1166.86 742.366 1162.96 749.244L1102.9 854.946C1099.07 861.682 1099.07 869.935 1102.9 876.672L1162.96 982.374C1166.86 989.252 1174.16 993.5 1182.07 993.5L1301.54 993.5C1309.45 993.5 1316.75 989.251 1320.66 982.374L1380.72 876.672Z" stroke="#FFB503" stroke-width="3"/>
<path d="M1879.72 876.48C1883.55 869.744 1883.55 861.491 1879.72 854.754L1819.66 749.052C1815.75 742.175 1808.45 737.926 1800.54 737.926L1681.07 737.926C1673.16 737.926 1665.86 742.175 1661.96 749.052L1601.9 854.754C1598.07 861.491 1598.07 869.744 1601.9 876.48L1661.96 982.182C1665.86 989.06 1673.16 993.309 1681.07 993.309L1800.54 993.309C1808.45 993.309 1815.75 989.06 1819.66 982.182L1879.72 876.48Z" stroke="#FFB503" stroke-width="3"/>
<path d="M2378.72 876.289C2382.55 869.553 2382.55 861.299 2378.72 854.563L2318.66 748.861C2314.75 741.983 2307.45 737.734 2299.54 737.734L2180.07 737.734C2172.16 737.734 2164.86 741.983 2160.96 748.861L2100.9 854.563C2097.07 861.299 2097.07 869.553 2100.9 876.289L2160.96 981.991C2164.86 988.869 2172.16 993.117 2180.07 993.117L2299.54 993.117C2307.45 993.117 2314.75 988.869 2318.66 981.991L2378.72 876.289Z" stroke="#FFB503" stroke-width="3"/>
<path d="M2877.72 876.097C2881.55 869.361 2881.55 861.108 2877.72 854.372L2817.66 748.669C2813.75 741.792 2806.45 737.543 2798.54 737.543L2679.07 737.543C2671.16 737.543 2663.86 741.792 2659.96 748.669L2599.9 854.372C2596.07 861.108 2596.07 869.361 2599.9 876.097L2659.96 981.8C2663.86 988.677 2671.16 992.926 2679.07 992.926L2798.54 992.926C2806.45 992.926 2813.75 988.677 2817.66 981.8L2877.72 876.097Z" stroke="#FFB503" stroke-width="3"/>
<path d="M3376.72 875.906C3380.55 869.17 3380.55 860.916 3376.72 854.18L3316.66 748.478C3312.75 741.6 3305.45 737.352 3297.54 737.352L3178.07 737.352C3170.16 737.352 3162.86 741.6 3158.96 748.478L3098.9 854.18C3095.07 860.916 3095.07 869.17 3098.9 875.906L3158.96 981.608C3162.86 988.486 3170.16 992.735 3178.07 992.735L3297.54 992.735C3305.45 992.735 3312.75 988.486 3316.66 981.608L3376.72 875.906Z" stroke="#FFB503" stroke-width="3"/>
<path d="M629.337 160.055C633.164 153.318 633.164 145.065 629.337 138.329L569.279 32.6265C565.371 25.7488 558.071 21.5001 550.16 21.5001L430.692 21.5001C422.781 21.5001 415.481 25.7488 411.573 32.6265L351.515 138.329C347.687 145.065 347.687 153.318 351.515 160.055L411.573 265.757C415.48 272.634 422.781 276.883 430.692 276.883L550.16 276.883C558.071 276.883 565.371 272.634 569.279 265.757L629.337 160.055Z" stroke="#FFB503" stroke-width="3"/>
<path d="M1128.34 159.863C1132.16 153.127 1132.16 144.873 1128.34 138.137L1068.28 32.4351C1064.37 25.5574 1057.07 21.3087 1049.16 21.3087L929.692 21.3087C921.781 21.3087 914.481 25.5574 910.573 32.4351L850.515 138.137C846.687 144.873 846.687 153.127 850.515 159.863L910.573 265.565C914.48 272.443 921.781 276.692 929.692 276.692L1049.16 276.692C1057.07 276.692 1064.37 272.443 1068.28 265.565L1128.34 159.863Z" stroke="#FFB503" stroke-width="3"/>
<path d="M1627.34 159.672C1631.16 152.935 1631.16 144.682 1627.34 137.946L1567.28 32.2437C1563.37 25.366 1556.07 21.1173 1548.16 21.1173L1428.69 21.1173C1420.78 21.1173 1413.48 25.366 1409.57 32.2437L1349.51 137.946C1345.69 144.682 1345.69 152.935 1349.51 159.672L1409.57 265.374C1413.48 272.252 1420.78 276.5 1428.69 276.5L1548.16 276.5C1556.07 276.5 1563.37 272.251 1567.28 265.374L1627.34 159.672Z" stroke="#FFB503" stroke-width="3"/>
<path d="M2126.34 159.48C2130.16 152.744 2130.16 144.491 2126.34 137.754L2066.28 32.0523C2062.37 25.1746 2055.07 20.9259 2047.16 20.9259L1927.69 20.9259C1919.78 20.9259 1912.48 25.1746 1908.57 32.0523L1848.51 137.754C1844.69 144.491 1844.69 152.744 1848.51 159.48L1908.57 265.182C1912.48 272.06 1919.78 276.309 1927.69 276.309L2047.16 276.309C2055.07 276.309 2062.37 272.06 2066.28 265.182L2126.34 159.48Z" stroke="#FFB503" stroke-width="3"/>
<path d="M2625.34 159.289C2629.16 152.553 2629.16 144.299 2625.34 137.563L2565.28 31.8609C2561.37 24.9832 2554.07 20.7345 2546.16 20.7345L2426.69 20.7345C2418.78 20.7345 2411.48 24.9832 2407.57 31.8609L2347.51 137.563C2343.69 144.299 2343.69 152.553 2347.51 159.289L2407.57 264.991C2411.48 271.869 2418.78 276.117 2426.69 276.117L2546.16 276.117C2554.07 276.117 2561.37 271.869 2565.28 264.991L2625.34 159.289Z" stroke="#FFB503" stroke-width="3"/>
<path d="M3124.34 159.097C3128.16 152.361 3128.16 144.108 3124.34 137.372L3064.28 31.6694C3060.37 24.7918 3053.07 20.5431 3045.16 20.5431L2925.69 20.5431C2917.78 20.5431 2910.48 24.7918 2906.57 31.6695L2846.51 137.372C2842.69 144.108 2842.69 152.361 2846.51 159.097L2906.57 264.8C2910.48 271.677 2917.78 275.926 2925.69 275.926L3045.16 275.926C3053.07 275.926 3060.37 271.677 3064.28 264.8L3124.34 159.097Z" stroke="#FFB503" stroke-width="3"/>
<path d="M3484.43 277.235L3424.69 277.235C3416.24 277.235 3408.44 272.696 3404.27 265.349L3344.21 159.647C3340.12 152.451 3340.12 143.635 3344.21 136.439L3404.27 30.737C3408.44 23.3902 3416.24 18.8517 3424.69 18.8517L3484.43 18.8517" stroke="#FFB503" stroke-width="3"/>
<path d="M629.72 448.055C633.547 441.318 633.547 433.065 629.72 426.329L569.662 320.626C565.754 313.749 558.453 309.5 550.543 309.5L431.074 309.5C423.164 309.5 415.863 313.749 411.956 320.626L351.898 426.329C348.07 433.065 348.07 441.318 351.898 448.055L411.956 553.757C415.863 560.634 423.164 564.883 431.074 564.883L550.543 564.883C558.453 564.883 565.754 560.634 569.662 553.757L629.72 448.055Z" stroke="#FFB503" stroke-width="3"/>
<path d="M1128.72 447.863C1132.55 441.127 1132.55 432.873 1128.72 426.137L1068.66 320.435C1064.75 313.557 1057.45 309.309 1049.54 309.309L930.074 309.309C922.164 309.309 914.863 313.557 910.956 320.435L850.898 426.137C847.07 432.873 847.07 441.127 850.898 447.863L910.956 553.565C914.863 560.443 922.164 564.692 930.074 564.692L1049.54 564.692C1057.45 564.692 1064.75 560.443 1068.66 553.565L1128.72 447.863Z" stroke="#FFB503" stroke-width="3"/>
<path d="M1627.72 447.672C1631.55 440.935 1631.55 432.682 1627.72 425.946L1567.66 320.244C1563.75 313.366 1556.45 309.117 1548.54 309.117L1429.07 309.117C1421.16 309.117 1413.86 313.366 1409.96 320.244L1349.9 425.946C1346.07 432.682 1346.07 440.935 1349.9 447.672L1409.96 553.374C1413.86 560.252 1421.16 564.5 1429.07 564.5L1548.54 564.5C1556.45 564.5 1563.75 560.251 1567.66 553.374L1627.72 447.672Z" stroke="#FFB503" stroke-width="3"/>
<path d="M2126.72 447.48C2130.55 440.744 2130.55 432.491 2126.72 425.754L2066.66 320.052C2062.75 313.175 2055.45 308.926 2047.54 308.926L1928.07 308.926C1920.16 308.926 1912.86 313.175 1908.96 320.052L1848.9 425.754C1845.07 432.491 1845.07 440.744 1848.9 447.48L1908.96 553.182C1912.86 560.06 1920.16 564.309 1928.07 564.309L2047.54 564.309C2055.45 564.309 2062.75 560.06 2066.66 553.182L2126.72 447.48Z" stroke="#FFB503" stroke-width="3"/>
<path d="M2625.72 447.289C2629.55 440.553 2629.55 432.299 2625.72 425.563L2565.66 319.861C2561.75 312.983 2554.45 308.734 2546.54 308.734L2427.07 308.734C2419.16 308.734 2411.86 312.983 2407.96 319.861L2347.9 425.563C2344.07 432.299 2344.07 440.553 2347.9 447.289L2407.96 552.991C2411.86 559.869 2419.16 564.117 2427.07 564.117L2546.54 564.117C2554.45 564.117 2561.75 559.869 2565.66 552.991L2625.72 447.289Z" stroke="#FFB503" stroke-width="3"/>
<path d="M3124.72 447.097C3128.55 440.361 3128.55 432.108 3124.72 425.372L3064.66 319.669C3060.75 312.792 3053.45 308.543 3045.54 308.543L2926.07 308.543C2918.16 308.543 2910.86 312.792 2906.96 319.669L2846.9 425.372C2843.07 432.108 2843.07 440.361 2846.9 447.097L2906.96 552.8C2910.86 559.677 2918.16 563.926 2926.07 563.926L3045.54 563.926C3053.45 563.926 3060.75 559.677 3064.66 552.8L3124.72 447.097Z" stroke="#FFB503" stroke-width="3"/>
<path d="M3484.81 565.235L3425.07 565.235C3416.62 565.235 3408.83 560.696 3404.65 553.349L3344.59 447.647C3340.5 440.451 3340.5 431.635 3344.59 424.439L3404.65 318.737C3408.83 311.39 3416.62 306.852 3425.07 306.852L3484.81 306.852" stroke="#FFB503" stroke-width="3"/>
<path d="M628.72 736.055C632.547 729.318 632.547 721.065 628.72 714.329L568.662 608.626C564.754 601.749 557.453 597.5 549.543 597.5L430.074 597.5C422.164 597.5 414.863 601.749 410.956 608.626L350.898 714.329C347.07 721.065 347.07 729.318 350.898 736.055L410.956 841.757C414.863 848.634 422.164 852.883 430.074 852.883L549.543 852.883C557.453 852.883 564.754 848.634 568.662 841.757L628.72 736.055Z" stroke="#FFB503" stroke-width="3"/>
<path d="M1127.72 735.863C1131.55 729.127 1131.55 720.873 1127.72 714.137L1067.66 608.435C1063.75 601.557 1056.45 597.309 1048.54 597.309L929.074 597.309C921.164 597.309 913.863 601.557 909.956 608.435L849.898 714.137C846.07 720.873 846.07 729.127 849.898 735.863L909.956 841.565C913.863 848.443 921.164 852.692 929.074 852.692L1048.54 852.692C1056.45 852.692 1063.75 848.443 1067.66 841.565L1127.72 735.863Z" stroke="#FFB503" stroke-width="3"/>
<path d="M1626.72 735.672C1630.55 728.935 1630.55 720.682 1626.72 713.946L1566.66 608.244C1562.75 601.366 1555.45 597.117 1547.54 597.117L1428.07 597.117C1420.16 597.117 1412.86 601.366 1408.96 608.244L1348.9 713.946C1345.07 720.682 1345.07 728.935 1348.9 735.672L1408.96 841.374C1412.86 848.252 1420.16 852.5 1428.07 852.5L1547.54 852.5C1555.45 852.5 1562.75 848.251 1566.66 841.374L1626.72 735.672Z" stroke="#FFB503" stroke-width="3"/>
<path d="M2125.72 735.48C2129.55 728.744 2129.55 720.491 2125.72 713.754L2065.66 608.052C2061.75 601.175 2054.45 596.926 2046.54 596.926L1927.07 596.926C1919.16 596.926 1911.86 601.175 1907.96 608.052L1847.9 713.754C1844.07 720.491 1844.07 728.744 1847.9 735.48L1907.96 841.182C1911.86 848.06 1919.16 852.309 1927.07 852.309L2046.54 852.309C2054.45 852.309 2061.75 848.06 2065.66 841.182L2125.72 735.48Z" stroke="#FFB503" stroke-width="3"/>
<path d="M2624.72 735.289C2628.55 728.553 2628.55 720.299 2624.72 713.563L2564.66 607.861C2560.75 600.983 2553.45 596.734 2545.54 596.734L2426.07 596.734C2418.16 596.734 2410.86 600.983 2406.96 607.861L2346.9 713.563C2343.07 720.299 2343.07 728.553 2346.9 735.289L2406.96 840.991C2410.86 847.869 2418.16 852.117 2426.07 852.117L2545.54 852.117C2553.45 852.117 2560.75 847.869 2564.66 840.991L2624.72 735.289Z" stroke="#FFB503" stroke-width="3"/>
<path d="M3123.72 735.097C3127.55 728.361 3127.55 720.108 3123.72 713.372L3063.66 607.669C3059.75 600.792 3052.45 596.543 3044.54 596.543L2925.07 596.543C2917.16 596.543 2909.86 600.792 2905.96 607.669L2845.9 713.372C2842.07 720.108 2842.07 728.361 2845.9 735.097L2905.96 840.8C2909.86 847.677 2917.16 851.926 2925.07 851.926L3044.54 851.926C3052.45 851.926 3059.75 847.677 3063.66 840.8L3123.72 735.097Z" stroke="#FFB503" stroke-width="3"/>
<path d="M3483.81 853.235L3424.07 853.235C3415.62 853.235 3407.83 848.696 3403.65 841.349L3343.59 735.647C3339.5 728.451 3339.5 719.635 3343.59 712.439L3403.65 606.737C3407.83 599.39 3415.62 594.852 3424.07 594.852L3483.81 594.852" stroke="#FFB503" stroke-width="3"/>
<path d="M629.72 1024.05C633.547 1017.32 633.547 1009.06 629.72 1002.33L569.662 896.626C565.754 889.749 558.453 885.5 550.543 885.5L431.074 885.5C423.164 885.5 415.863 889.749 411.956 896.626L351.898 1002.33C348.07 1009.06 348.07 1017.32 351.898 1024.05L411.956 1129.76C415.863 1136.63 423.164 1140.88 431.074 1140.88L550.543 1140.88C558.453 1140.88 565.754 1136.63 569.662 1129.76L629.72 1024.05Z" stroke="#FFB503" stroke-width="3"/>
<path d="M1128.72 1023.86C1132.55 1017.13 1132.55 1008.87 1128.72 1002.14L1068.66 896.435C1064.75 889.557 1057.45 885.309 1049.54 885.309L930.074 885.309C922.164 885.309 914.863 889.557 910.956 896.435L850.898 1002.14C847.07 1008.87 847.07 1017.13 850.898 1023.86L910.956 1129.57C914.863 1136.44 922.164 1140.69 930.074 1140.69L1049.54 1140.69C1057.45 1140.69 1064.75 1136.44 1068.66 1129.57L1128.72 1023.86Z" stroke="#FFB503" stroke-width="3"/>
<path d="M1627.72 1023.67C1631.55 1016.94 1631.55 1008.68 1627.72 1001.95L1567.66 896.244C1563.75 889.366 1556.45 885.117 1548.54 885.117L1429.07 885.117C1421.16 885.117 1413.86 889.366 1409.96 896.244L1349.9 1001.95C1346.07 1008.68 1346.07 1016.94 1349.9 1023.67L1409.96 1129.37C1413.86 1136.25 1421.16 1140.5 1429.07 1140.5L1548.54 1140.5C1556.45 1140.5 1563.75 1136.25 1567.66 1129.37L1627.72 1023.67Z" stroke="#FFB503" stroke-width="3"/>
<path d="M2126.72 1023.48C2130.55 1016.74 2130.55 1008.49 2126.72 1001.75L2066.66 896.052C2062.75 889.175 2055.45 884.926 2047.54 884.926L1928.07 884.926C1920.16 884.926 1912.86 889.175 1908.96 896.052L1848.9 1001.75C1845.07 1008.49 1845.07 1016.74 1848.9 1023.48L1908.96 1129.18C1912.86 1136.06 1920.16 1140.31 1928.07 1140.31L2047.54 1140.31C2055.45 1140.31 2062.75 1136.06 2066.66 1129.18L2126.72 1023.48Z" stroke="#FFB503" stroke-width="3"/>
<path d="M2625.72 1023.29C2629.55 1016.55 2629.55 1008.3 2625.72 1001.56L2565.66 895.861C2561.75 888.983 2554.45 884.734 2546.54 884.734L2427.07 884.734C2419.16 884.734 2411.86 888.983 2407.96 895.861L2347.9 1001.56C2344.07 1008.3 2344.07 1016.55 2347.9 1023.29L2407.96 1128.99C2411.86 1135.87 2419.16 1140.12 2427.07 1140.12L2546.54 1140.12C2554.45 1140.12 2561.75 1135.87 2565.66 1128.99L2625.72 1023.29Z" stroke="#FFB503" stroke-width="3"/>
<path d="M3124.72 1023.1C3128.55 1016.36 3128.55 1008.11 3124.72 1001.37L3064.66 895.669C3060.75 888.792 3053.45 884.543 3045.54 884.543L2926.07 884.543C2918.16 884.543 2910.86 888.792 2906.96 895.669L2846.9 1001.37C2843.07 1008.11 2843.07 1016.36 2846.9 1023.1L2906.96 1128.8C2910.86 1135.68 2918.16 1139.93 2926.07 1139.93L3045.54 1139.93C3053.45 1139.93 3060.75 1135.68 3064.66 1128.8L3124.72 1023.1Z" stroke="#FFB503" stroke-width="3"/>
<path d="M3484.81 1141.23L3425.07 1141.23C3416.62 1141.23 3408.83 1136.7 3404.65 1129.35L3344.59 1023.65C3340.5 1016.45 3340.5 1007.63 3344.59 1000.44L3404.65 894.737C3408.83 887.39 3416.62 882.852 3425.07 882.852L3484.81 882.852" stroke="#FFB503" stroke-width="3"/>
</svg>
