<svg width="340" height="260" viewBox="0 0 340 260" fill="none" xmlns="http://www.w3.org/2000/svg">
<path d="M0.537139 103.657C-0.291881 88.4665 7.09467 76.6798 22.6968 68.2964C38.2989 59.9131 49.6054 50.1257 56.6164 38.9343C63.6273 27.7429 73.4253 19.031 86.0102 12.7986C88.8823 11.3763 91.7883 10.1764 94.7282 9.19884C104.67 5.8931 115 5.13091 125.718 6.91227C139.605 9.22038 152.359 12.1274 163.981 15.6333C175.603 19.1392 190.851 15.8618 209.725 5.80107C228.599 -4.25966 239.342 0.0813336 241.954 18.8241C244.566 37.5668 257.229 47.9526 279.945 49.9814C302.661 52.0101 318.47 60.6004 327.372 75.7522C332.227 84.0154 335.507 92.6039 337.214 101.518C338.636 108.948 338.965 116.605 338.199 124.488C336.516 141.827 325.605 155.292 305.467 164.884C285.33 174.476 277.327 189.352 281.46 209.512C285.592 229.672 277.948 240.391 258.528 241.67C239.108 242.95 222.21 244.098 207.834 245.116C193.458 246.134 179.829 244.893 166.945 241.393C154.062 237.893 140.942 237.6 127.584 240.512C114.227 243.424 98.3429 245.636 79.9329 247.148C61.523 248.66 47.2436 243.386 37.0947 231.327C26.9459 219.267 23.9752 204.681 28.1829 187.567C32.3905 170.454 29.0421 155.988 18.1375 144.17C7.23294 132.351 1.36616 118.847 0.537139 103.657Z" fill="#CBD5E1" fill-opacity="0.4"/>
<path d="M230.519 154.474C233.081 156.658 234.754 159.288 235.176 162.663C235.176 163.579 235.176 164.496 235.176 165.44C240.403 165.44 245.631 165.44 251.017 165.44C251.017 165.547 251.017 165.655 251.017 165.766C251.124 165.759 251.23 165.751 251.34 165.743C252.334 165.702 252.873 165.759 253.63 166.419C253.918 166.996 253.876 167.593 253.794 168.216C253.652 168.59 253.652 168.59 253.457 168.988C253.09 169.765 252.745 170.547 252.412 171.339C252.361 171.459 252.311 171.579 252.259 171.703C252.096 172.089 251.935 172.474 251.773 172.86C251.657 173.135 251.542 173.41 251.426 173.685C250.602 175.647 249.784 177.611 248.967 179.575C248.188 181.447 247.401 183.314 246.608 185.179C245.92 186.798 245.236 188.417 244.556 190.039C244.512 190.143 244.469 190.248 244.424 190.355C244.204 190.879 243.985 191.403 243.765 191.928C243.335 192.955 242.905 193.983 242.474 195.01C242.431 195.113 242.388 195.215 242.344 195.321C241.645 196.987 240.944 198.652 240.243 200.317C238.779 203.792 237.317 207.268 235.868 210.75C235.586 211.427 235.304 212.104 235.023 212.781C234.917 213.034 234.917 213.034 234.81 213.292C233.824 215.661 232.831 218.027 231.824 220.387C231.45 221.265 231.077 222.142 230.722 223.027C230.669 223.159 230.617 223.29 230.562 223.425C230.434 223.746 230.309 224.068 230.183 224.389C229.95 224.887 229.95 224.887 229.296 225.703C251.393 225.757 273.49 225.811 296.256 225.867C296.256 226.082 296.256 226.298 296.256 226.52C202.965 226.52 109.673 226.52 13.5552 226.52C13.5552 226.304 13.5552 226.089 13.5552 225.867C54.2994 225.813 95.0436 225.759 137.022 225.703C136.78 225.218 136.78 225.218 136.533 224.723C136.471 224.149 136.471 224.149 136.47 223.501C136.47 223.381 136.469 223.261 136.468 223.137C136.466 222.734 136.468 222.331 136.469 221.928C136.469 221.636 136.468 221.344 136.467 221.052C136.464 220.25 136.465 219.448 136.466 218.646C136.467 217.781 136.465 216.916 136.463 216.051C136.46 214.356 136.46 212.661 136.461 210.967C136.462 209.589 136.461 208.212 136.461 206.835C136.46 206.64 136.46 206.444 136.46 206.242C136.46 205.844 136.46 205.446 136.459 205.048C136.457 201.316 136.458 197.584 136.46 193.852C136.462 190.436 136.459 187.019 136.456 183.603C136.452 180.097 136.45 176.591 136.451 173.085C136.452 171.116 136.451 169.147 136.448 167.177C136.446 165.501 136.446 163.825 136.449 162.149C136.45 161.294 136.451 160.438 136.448 159.583C136.446 158.8 136.447 158.017 136.45 157.235C136.45 156.951 136.45 156.667 136.448 156.384C136.446 155.999 136.448 155.615 136.451 155.23C136.451 155.016 136.451 154.802 136.451 154.581C136.578 153.687 136.971 153.193 137.676 152.65C138.527 152.171 139.299 152.187 140.26 152.187C140.407 152.186 140.554 152.186 140.706 152.185C141.2 152.183 141.694 152.183 142.188 152.182C142.542 152.181 142.896 152.18 143.25 152.179C144.212 152.176 145.174 152.174 146.136 152.173C146.737 152.172 147.338 152.171 147.938 152.17C149.818 152.167 151.698 152.165 153.577 152.163C155.748 152.162 157.918 152.157 160.089 152.151C161.766 152.146 163.443 152.143 165.121 152.143C166.123 152.142 167.125 152.141 168.127 152.137C169.069 152.133 170.012 152.132 170.954 152.134C171.3 152.134 171.646 152.133 171.992 152.131C172.464 152.128 172.936 152.129 173.409 152.131C173.614 152.129 173.614 152.129 173.823 152.126C174.751 152.136 175.291 152.329 176.055 152.864C176.559 153.505 176.904 154.205 177.26 154.936C177.846 156.13 178.452 157.313 179.064 158.494C179.167 158.694 179.271 158.894 179.374 159.094C179.521 159.378 179.668 159.662 179.815 159.946C179.901 160.112 179.987 160.277 180.075 160.448C180.304 160.887 180.304 160.887 180.628 161.357C180.628 161.572 180.628 161.788 180.628 162.01C190.491 162.01 200.353 162.01 210.515 162.01C210.623 161.417 210.73 160.824 210.842 160.213C211.028 159.745 211.21 159.327 211.444 158.887C211.53 158.719 211.53 158.719 211.618 158.549C212.273 157.314 213.083 156.266 214.108 155.314C214.213 155.213 214.319 155.113 214.427 155.009C218.84 150.913 225.795 150.776 230.519 154.474Z" fill="#FEB921"/>
<path d="M230.519 154.474C233.081 156.658 234.754 159.288 235.176 162.663C235.176 163.579 235.176 164.496 235.176 165.44C240.403 165.44 245.631 165.44 251.017 165.44C251.017 165.547 251.017 165.655 251.017 165.766C251.124 165.759 251.23 165.751 251.34 165.743C252.334 165.702 252.873 165.759 253.63 166.419C253.918 166.996 253.876 167.593 253.794 168.216C253.652 168.59 253.652 168.59 253.457 168.988C253.09 169.765 252.745 170.547 252.412 171.339C252.361 171.459 252.311 171.579 252.259 171.703C252.096 172.089 251.935 172.474 251.773 172.86C251.657 173.135 251.542 173.41 251.426 173.685C250.602 175.647 249.784 177.611 248.967 179.575C248.188 181.447 247.401 183.314 246.608 185.179C245.92 186.798 245.236 188.417 244.556 190.039C244.512 190.143 244.469 190.248 244.424 190.355C244.204 190.879 243.985 191.403 243.765 191.928C243.335 192.955 242.905 193.983 242.474 195.01C242.431 195.113 242.388 195.215 242.344 195.321C241.645 196.987 240.944 198.652 240.243 200.317C238.779 203.792 237.317 207.268 235.868 210.75C235.586 211.427 235.304 212.104 235.023 212.781C234.917 213.034 234.917 213.034 234.81 213.292C233.824 215.661 232.831 218.027 231.824 220.387C231.45 221.265 231.077 222.142 230.722 223.027C230.669 223.159 230.617 223.29 230.562 223.425C230.434 223.746 230.309 224.068 230.183 224.389C229.95 224.887 229.95 224.887 229.296 225.703C251.393 225.757 273.49 225.811 296.256 225.867C296.256 226.082 296.256 226.298 296.256 226.52C202.965 226.52 109.673 226.52 13.5552 226.52C13.5552 226.304 13.5552 226.089 13.5552 225.867C84.2647 225.813 154.974 225.759 227.826 225.703C228.309 224.771 228.309 224.771 228.379 223.835C228.382 223.575 228.382 223.575 228.384 223.31C228.383 223.122 228.382 222.934 228.382 222.739C228.383 222.538 228.384 222.336 228.385 222.129C228.387 221.57 228.388 221.012 228.387 220.454C228.387 219.851 228.39 219.249 228.392 218.646C228.396 217.603 228.398 216.559 228.398 215.516C228.4 214.007 228.403 212.499 228.408 210.99C228.415 208.542 228.42 206.095 228.423 203.647C228.427 201.269 228.431 198.892 228.437 196.514C228.437 196.367 228.438 196.221 228.438 196.07C228.44 195.335 228.442 194.599 228.443 193.864C228.459 187.764 228.47 181.665 228.48 175.565C228.357 175.622 228.234 175.679 228.107 175.737C227.864 175.848 227.864 175.848 227.617 175.962C227.457 176.035 227.297 176.109 227.132 176.185C224.497 177.341 221.02 177.158 218.339 176.202C217.895 176.009 217.473 175.797 217.048 175.565C216.911 175.493 216.773 175.421 216.632 175.346C215.551 174.741 214.663 173.982 213.781 173.115C213.667 173.003 213.552 172.891 213.434 172.775C211.933 171.197 211.034 169.335 210.515 167.236C210.478 167.105 210.442 166.973 210.404 166.838C210.075 165.506 209.915 163.646 210.352 162.337C200.489 162.337 190.626 162.337 180.465 162.337C178.793 159.365 178.793 159.365 178.207 158.175C178.075 157.912 177.943 157.649 177.81 157.386C177.609 156.985 177.409 156.583 177.211 156.181C177.014 155.783 176.815 155.387 176.615 154.991C176.556 154.871 176.498 154.751 176.438 154.628C176.381 154.515 176.324 154.403 176.265 154.287C176.216 154.189 176.168 154.091 176.118 153.991C175.711 153.433 175.27 152.947 174.584 152.788C174.196 152.759 173.814 152.755 173.424 152.76C173.276 152.758 173.127 152.757 172.975 152.756C172.479 152.752 171.983 152.754 171.487 152.757C171.132 152.755 170.776 152.753 170.42 152.751C169.455 152.747 168.49 152.747 167.524 152.748C166.515 152.749 165.506 152.745 164.497 152.741C162.587 152.735 160.677 152.733 158.766 152.733C156.591 152.732 154.416 152.727 152.241 152.721C147.767 152.709 143.293 152.703 138.819 152.701C138.819 152.539 138.819 152.378 138.819 152.211C143.505 152.196 148.191 152.184 152.878 152.177C155.053 152.174 157.229 152.169 159.405 152.162C161.301 152.155 163.198 152.151 165.094 152.149C166.098 152.149 167.103 152.147 168.107 152.142C169.052 152.137 169.997 152.136 170.942 152.137C171.289 152.137 171.636 152.136 171.983 152.133C172.457 152.13 172.93 152.131 173.404 152.132C173.541 152.13 173.678 152.129 173.82 152.127C174.75 152.136 175.29 152.328 176.055 152.864C176.559 153.505 176.904 154.205 177.26 154.936C177.846 156.13 178.452 157.313 179.064 158.494C179.167 158.694 179.271 158.894 179.374 159.094C179.521 159.378 179.668 159.662 179.815 159.946C179.901 160.112 179.987 160.277 180.075 160.448C180.304 160.887 180.304 160.887 180.628 161.357C180.628 161.572 180.628 161.788 180.628 162.01C190.491 162.01 200.353 162.01 210.515 162.01C210.623 161.417 210.73 160.824 210.842 160.213C211.028 159.745 211.21 159.327 211.444 158.887C211.53 158.719 211.53 158.719 211.618 158.549C212.273 157.314 213.083 156.266 214.108 155.314C214.213 155.213 214.319 155.113 214.427 155.009C218.84 150.913 225.795 150.776 230.519 154.474Z" fill="#F69124"/>
<path d="M143.719 137.186C146.036 137.186 148.353 137.186 150.741 137.186C150.741 137.294 150.741 137.401 150.741 137.512C168.957 137.512 187.174 137.512 205.942 137.512C205.942 137.405 205.942 137.297 205.942 137.186C210.954 137.186 215.966 137.186 221.131 137.186C221.131 142.036 221.131 146.887 221.131 151.884C220.565 152.046 220.565 152.046 219.987 152.211C217.903 152.831 215.86 153.659 214.333 155.266C214.108 155.477 214.108 155.477 213.781 155.477C213.74 155.571 213.698 155.664 213.656 155.76C213.431 156.174 213.163 156.481 212.852 156.835C211.599 158.38 211.037 160.095 210.515 162.01C200.652 162.01 190.79 162.01 180.628 162.01C180.466 161.633 180.305 161.255 180.138 160.867C179.871 160.301 179.591 159.742 179.311 159.182C179.194 158.947 179.194 158.947 179.074 158.707C178.496 157.559 177.89 156.43 177.255 155.312C177.193 155.202 177.131 155.092 177.066 154.978C177.006 154.873 176.946 154.767 176.884 154.658C176.645 154.217 176.435 153.763 176.23 153.306C175.91 152.796 175.448 152.623 174.912 152.374C174.804 152.32 174.696 152.266 174.585 152.211C174.18 152.193 173.779 152.186 173.374 152.185C173.248 152.184 173.122 152.183 172.991 152.183C172.566 152.18 172.14 152.179 171.715 152.177C171.411 152.176 171.106 152.174 170.802 152.172C169.975 152.168 169.147 152.165 168.319 152.161C167.455 152.158 166.591 152.153 165.727 152.149C164.089 152.141 162.452 152.133 160.814 152.126C158.602 152.117 156.39 152.106 154.178 152.095C150.692 152.078 147.205 152.063 143.719 152.048C143.719 147.143 143.719 142.239 143.719 137.186Z" fill="#FEFEFE"/>
<path d="M218.028 77.2487C218.59 77.5328 219.124 77.8581 219.661 78.1878C219.984 78.3826 220.307 78.5774 220.63 78.7721C220.795 78.872 220.96 78.9719 221.129 79.0748C221.888 79.5337 222.653 79.9833 223.417 80.4334C223.716 80.6102 224.016 80.7872 224.315 80.9641C224.463 81.0517 224.612 81.1393 224.764 81.2295C225.214 81.4949 225.663 81.7603 226.112 82.0257C226.334 82.1573 226.334 82.1573 226.562 82.2915C226.859 82.4671 227.156 82.6427 227.453 82.8183C228.236 83.281 229.019 83.7437 229.802 84.2062C230.047 84.3507 230.047 84.3507 230.296 84.4981C230.609 84.6825 230.921 84.8669 231.233 85.0512C231.374 85.1345 231.515 85.2177 231.66 85.3035C231.857 85.4192 231.857 85.4192 232.058 85.5372C232.321 85.6944 232.58 85.8586 232.838 86.0257C233.223 86.2555 233.223 86.2555 233.725 86.3581C234.629 86.597 235.389 87.1419 236.176 87.6295C236.543 87.853 236.909 88.0763 237.276 88.2993C237.371 88.3573 237.466 88.4153 237.564 88.475C238.534 89.0658 239.513 89.6402 240.494 90.2126C240.988 90.5011 241.481 90.7904 241.975 91.0796C242.588 91.4386 243.201 91.7974 243.815 92.1558C244.335 92.4596 244.854 92.7643 245.373 93.0696C245.569 93.1848 245.765 93.2998 245.962 93.4144C246.233 93.5725 246.503 93.7317 246.774 93.891C247.004 94.0262 247.004 94.0262 247.24 94.164C247.588 94.3969 247.588 94.3969 247.751 94.7236C247.605 94.8126 247.459 94.9017 247.308 94.9934C246.038 95.7801 244.893 96.6018 243.832 97.6633C243.708 97.787 243.584 97.9108 243.456 98.0384C240.519 101.138 239.039 105.267 237.955 109.317C237.789 109.912 237.789 109.912 237.626 110.239C237.518 110.239 237.41 110.239 237.299 110.239C237.284 110.407 237.268 110.575 237.252 110.748C237.119 111.802 236.841 112.825 236.574 113.852C236.546 113.962 236.518 114.071 236.488 114.184C235.607 117.572 234.67 121.084 232.889 124.121C232.832 124.22 232.774 124.319 232.714 124.421C231.926 125.753 231.03 126.927 229.95 128.04C229.815 128.19 229.815 128.19 229.678 128.343C229.091 128.976 228.428 129.482 227.724 129.98C227.635 130.044 227.545 130.108 227.452 130.174C226.923 130.537 226.507 130.765 225.867 130.817C225.444 130.639 225.444 130.639 224.989 130.358C224.817 130.254 224.645 130.15 224.468 130.043C224.281 129.926 224.094 129.81 223.907 129.694C223.711 129.574 223.516 129.455 223.32 129.337C223.013 129.15 222.706 128.964 222.399 128.777C221.387 128.157 220.363 127.557 219.338 126.959C218.84 126.669 218.342 126.377 217.845 126.086C217.749 126.03 217.653 125.974 217.554 125.916C216.221 125.134 214.89 124.347 213.56 123.56C213.115 123.296 212.669 123.033 212.223 122.77C211.997 122.637 211.997 122.637 211.766 122.5C211.466 122.323 211.166 122.146 210.865 121.97C210.111 121.524 209.359 121.075 208.612 120.618C208.463 120.527 208.315 120.436 208.162 120.343C207.88 120.171 207.599 119.998 207.319 119.824C207.13 119.709 207.13 119.709 206.937 119.591C206.827 119.523 206.717 119.456 206.604 119.386C206.27 119.203 206.27 119.203 205.876 119.148C205.357 119.038 204.988 118.826 204.53 118.558C204.353 118.455 204.177 118.353 203.995 118.247C203.807 118.136 203.619 118.025 203.431 117.915C203.238 117.801 203.044 117.688 202.851 117.576C202.301 117.255 201.754 116.932 201.206 116.608C201.013 116.494 201.013 116.494 200.815 116.377C200.126 115.969 199.44 115.555 198.756 115.138C198.629 115.061 198.502 114.983 198.37 114.903C197.518 114.384 196.667 113.863 195.817 113.342C196.267 112.873 196.755 112.538 197.297 112.178C201.328 109.423 203.56 105.181 204.962 100.603C205.024 100.411 205.085 100.219 205.148 100.021C205.731 98.1312 206.181 96.2088 206.634 94.2844C206.661 94.169 206.688 94.0535 206.717 93.9346C206.792 93.6167 206.867 93.2986 206.941 92.9805C207.067 92.5061 207.217 92.0703 207.412 91.6205C207.52 91.6205 207.628 91.6205 207.739 91.6205C207.765 91.4725 207.765 91.4725 207.792 91.3214C208.284 88.7085 209.241 86.2692 210.515 83.9447C210.605 83.7725 210.696 83.6002 210.789 83.4228C211.928 81.3392 215.368 76.4147 218.028 77.2487Z" fill="#FEFEFE"/>
<path d="M173.606 60.1005C177.934 62.3959 180.496 66.957 181.963 71.4498C182.067 71.7651 182.174 72.0794 182.283 72.3932C182.776 73.8247 183.182 75.2617 183.534 76.7337C183.62 77.0902 183.708 77.446 183.797 77.8018C183.852 78.0325 183.908 78.2632 183.964 78.494C184.014 78.6982 184.063 78.9024 184.114 79.1128C184.222 79.7039 184.225 80.2424 184.221 80.8417C184.298 81.279 184.298 81.279 184.425 81.6959C184.47 81.8523 184.515 82.0088 184.561 82.1699C184.611 82.3346 184.66 82.4992 184.711 82.6688C184.762 82.8411 184.814 83.0134 184.866 83.1909C185.888 86.5439 187.211 89.707 189.447 92.4372C189.559 92.5761 189.671 92.7151 189.787 92.8582C190.965 94.2466 192.436 95.4547 194.02 96.3568C193.23 97.0516 192.325 97.5403 191.417 98.0614C191.062 98.2667 190.707 98.4721 190.352 98.6776C190.173 98.7812 189.994 98.8847 189.81 98.9914C189.026 99.4459 188.246 99.9066 187.467 100.368C187.32 100.455 187.174 100.542 187.022 100.631C186.726 100.806 186.431 100.982 186.135 101.157C185.388 101.599 184.641 102.04 183.894 102.481C183.595 102.658 183.296 102.835 182.996 103.012C182.397 103.366 181.799 103.72 181.2 104.073C180.977 104.205 180.977 104.205 180.75 104.339C180.452 104.516 180.153 104.692 179.854 104.869C179.095 105.317 178.337 105.765 177.578 106.214C177.271 106.395 176.964 106.577 176.657 106.758C176.508 106.846 176.359 106.935 176.204 107.026C175.288 107.567 174.37 108.107 173.452 108.646C172.502 109.205 171.555 109.769 170.61 110.338C169.734 110.865 168.855 111.385 167.972 111.9C167.357 112.26 166.746 112.624 166.14 112.997C166.014 113.074 165.888 113.15 165.759 113.229C165.517 113.376 165.276 113.525 165.037 113.675C164.216 114.171 164.216 114.171 163.795 114.107C160.402 112.898 158.092 109.243 156.551 106.183C155.996 105.01 155.562 103.793 155.151 102.563C155.104 102.423 155.057 102.283 155.009 102.139C154.853 101.672 154.701 101.204 154.549 100.736C154.5 100.588 154.451 100.441 154.401 100.289C153.994 99.0181 153.733 97.7481 153.601 96.4199C153.523 95.6623 153.359 94.94 153.171 94.203C153.135 94.0632 153.099 93.9235 153.063 93.7795C151.472 87.6739 149.162 81.8241 143.719 78.2286C143.557 78.1208 143.395 78.013 143.229 77.902C143.229 77.7942 143.229 77.6864 143.229 77.5754C143.318 77.5245 143.407 77.4737 143.499 77.4214C145.957 76.0226 148.403 74.6063 150.825 73.1454C151.73 72.6011 152.642 72.0683 153.555 71.5354C155.289 70.5222 157.022 69.5058 158.744 68.4705C158.898 68.3791 159.051 68.2876 159.21 68.1935C159.971 67.7326 160.569 67.2724 161.193 66.6331C161.559 66.4064 161.917 66.2002 162.296 66.0003C163.454 65.3689 164.586 64.702 165.715 64.0201C166.064 63.8108 166.413 63.6015 166.762 63.3923C167.349 63.0396 167.936 62.6858 168.52 62.3289C169.058 62.0009 169.597 61.6757 170.136 61.352C170.345 61.2261 170.553 61.0993 170.761 60.9715C171.052 60.7925 171.344 60.6172 171.637 60.4424C171.805 60.3409 171.972 60.2393 172.144 60.1346C172.72 59.8983 173.013 59.9335 173.606 60.1005Z" fill="#FEFEFE"/>
<path d="M197.123 24.0075C198.16 23.9498 199.069 24.1682 200.073 24.4158C201.894 24.8508 203.721 25.2486 205.554 25.6305C206.089 25.7422 206.624 25.8541 207.159 25.966C207.29 25.9936 207.422 26.0212 207.558 26.0496C208.841 26.3187 210.122 26.5952 211.403 26.8758C211.51 26.8992 211.617 26.9226 211.727 26.9468C213.059 27.2388 214.39 27.5376 215.72 27.8407C217.936 28.3458 220.157 28.8286 222.381 29.2997C222.882 29.4064 223.384 29.5139 223.885 29.6217C225.84 30.0424 225.84 30.0424 227.802 30.4227C228.124 30.4814 228.444 30.5429 228.765 30.6046C229.133 30.6748 229.502 30.74 229.872 30.7989C230.325 30.888 230.689 30.9709 231.093 31.1934C231.403 31.6584 231.489 32.1181 231.583 32.6633C231.615 32.7782 231.647 32.8932 231.679 33.0117C233.238 38.7353 230.482 44.8791 227.744 49.7602C227.607 49.9977 227.469 50.2343 227.328 50.4695C227.156 50.7902 227.156 50.7902 227.107 51.1679C226.978 51.7538 226.706 52.2404 226.421 52.7621C226.332 52.9274 226.332 52.9274 226.242 53.096C226.053 53.4477 225.863 53.7987 225.673 54.1496C225.425 54.6089 225.178 55.0685 224.931 55.5282C224.871 55.6393 224.811 55.7504 224.75 55.8648C224.231 56.8314 223.736 57.8087 223.254 58.7939C223.146 58.7939 223.038 58.7939 222.927 58.7939C222.589 59.9155 222.254 61.0377 221.927 62.1623C221.884 62.3076 221.84 62.4529 221.796 62.6025C220.996 65.3621 221.047 68.4229 221.677 71.2143C221.784 71.6959 221.784 71.6959 221.784 72.1859C219.553 71.7836 217.336 71.319 215.118 70.8487C214.932 70.8092 214.745 70.7697 214.552 70.7289C211.99 70.1865 209.434 69.6254 206.883 69.0349C204.836 68.5613 202.784 68.1199 200.729 67.6849C200.08 67.5474 199.431 67.4096 198.782 67.2717C198.569 67.2265 198.569 67.2265 198.352 67.1804C197.618 67.0243 196.885 66.8672 196.152 66.7082C196.007 66.6767 195.862 66.6453 195.713 66.6129C195.421 66.5494 195.128 66.4859 194.836 66.4224C193.975 66.2364 193.114 66.0583 192.251 65.8871C191.717 65.7805 191.184 65.6694 190.651 65.5574C190.402 65.506 190.152 65.4567 189.902 65.4095C188 65.05 188 65.05 187.566 64.5516C187.428 64.2061 187.371 63.8981 187.324 63.5301C187.261 63.3383 187.198 63.1465 187.133 62.9489C186.914 62.0138 186.943 61.0519 186.946 60.0965C186.946 59.7683 186.942 59.4401 186.938 59.112C186.936 54.2676 189.148 49.8459 191.47 45.7102C192.7 43.5096 193.923 41.2968 195.012 39.022C195.116 38.8046 195.222 38.5878 195.328 38.3715C197.329 34.2953 198.326 29.6075 197.23 25.1284C197.123 24.6608 197.123 24.6608 197.123 24.0075Z" fill="#FEFEFE"/>
<path d="M230.519 154.474C233.081 156.658 234.754 159.288 235.176 162.663C235.176 163.579 235.176 164.496 235.176 165.44C240.404 165.44 245.631 165.44 251.018 165.44C251.018 165.601 251.018 165.763 251.018 165.93C245.79 165.93 240.562 165.93 235.176 165.93C234.933 167.223 234.933 167.223 234.686 168.543C234.498 169.044 234.336 169.453 234.084 169.91C234.027 170.018 233.97 170.126 233.911 170.237C233.4 171.176 232.796 172.001 232.073 172.789C231.963 172.914 231.852 173.039 231.739 173.168C229.684 175.376 226.694 176.76 223.689 176.918C221.355 176.989 219.122 176.698 217.048 175.565C216.911 175.493 216.774 175.421 216.632 175.346C215.551 174.741 214.663 173.982 213.781 173.115C213.667 173.003 213.552 172.891 213.434 172.775C211.933 171.197 211.034 169.335 210.515 167.236C210.46 167.039 210.46 167.039 210.404 166.838C210.076 165.506 209.915 163.646 210.352 162.337C200.489 162.337 190.626 162.337 180.465 162.337C178.793 159.365 178.793 159.365 178.207 158.175C178.075 157.912 177.943 157.649 177.811 157.386C177.61 156.985 177.409 156.583 177.211 156.181C177.014 155.783 176.815 155.387 176.615 154.991C176.557 154.871 176.498 154.751 176.438 154.628C176.381 154.515 176.324 154.403 176.265 154.287C176.192 154.14 176.192 154.14 176.118 153.991C175.711 153.433 175.27 152.947 174.585 152.788C174.196 152.759 173.814 152.755 173.424 152.76C173.276 152.758 173.128 152.757 172.975 152.756C172.479 152.752 171.983 152.754 171.488 152.757C171.132 152.755 170.776 152.753 170.42 152.751C169.455 152.747 168.49 152.747 167.524 152.748C166.515 152.749 165.507 152.745 164.498 152.741C162.587 152.735 160.677 152.733 158.766 152.733C156.591 152.732 154.416 152.727 152.241 152.721C147.767 152.709 143.293 152.703 138.819 152.701C138.819 152.539 138.819 152.378 138.819 152.211C143.505 152.196 148.191 152.184 152.878 152.177C155.054 152.174 157.229 152.169 159.405 152.162C161.302 152.155 163.198 152.151 165.094 152.149C166.099 152.149 167.103 152.147 168.107 152.142C169.052 152.137 169.997 152.136 170.942 152.137C171.289 152.137 171.636 152.136 171.983 152.133C172.457 152.13 172.931 152.131 173.404 152.132C173.541 152.13 173.679 152.129 173.82 152.127C174.75 152.136 175.29 152.328 176.055 152.864C176.559 153.505 176.904 154.205 177.26 154.936C177.847 156.13 178.452 157.313 179.064 158.494C179.167 158.694 179.271 158.894 179.374 159.094C179.521 159.378 179.668 159.662 179.815 159.946C179.901 160.112 179.987 160.277 180.075 160.448C180.304 160.887 180.304 160.887 180.628 161.357C180.628 161.572 180.628 161.788 180.628 162.01C190.491 162.01 200.353 162.01 210.515 162.01C210.623 161.417 210.731 160.824 210.842 160.213C211.029 159.745 211.21 159.327 211.444 158.887C211.501 158.775 211.559 158.664 211.618 158.549C212.273 157.314 213.083 156.266 214.108 155.314C214.266 155.163 214.266 155.163 214.428 155.009C218.84 150.913 225.795 150.776 230.519 154.474Z" fill="#05192E"/>
<path d="M13.5552 226.03C106.846 226.03 200.138 226.03 296.256 226.03C296.256 226.192 296.256 226.353 296.256 226.52C202.965 226.52 109.673 226.52 13.5552 226.52C13.5552 226.358 13.5552 226.197 13.5552 226.03Z" fill="#02172D"/>
<path d="M40.5024 143.555C41.3401 144.232 42.1093 145.247 42.2989 146.332C42.4282 148.014 42.2358 149.253 41.3803 150.7C40.1596 151.857 38.7614 152.461 37.0932 152.424C35.5836 152.277 34.4881 151.515 33.4798 150.415C32.5292 149.115 32.4872 147.638 32.727 146.081C33.0941 144.747 34.0539 143.744 35.2355 143.065C37.0589 142.121 38.8228 142.482 40.5024 143.555Z" fill="#27343C"/>
<path d="M126.233 26.8146C127.084 27.318 127.759 27.8308 128.203 28.7437C128.203 28.8515 128.203 28.9593 128.203 29.0704C128.375 28.9929 128.547 28.9154 128.724 28.8356C129.755 28.4004 130.689 28.3977 131.796 28.4171C131.796 28.5788 131.796 28.7405 131.796 28.907C131.697 28.9131 131.599 28.9193 131.497 28.9255C130.454 29.0073 129.519 29.2256 128.53 29.5603C128.544 29.7692 128.557 29.978 128.571 30.1932C128.564 31.2609 128.286 32.1998 127.571 33.0091C126.87 33.6479 126.242 34.1332 125.264 34.1332C125.21 34.5104 125.156 34.8877 125.1 35.2764C124.939 35.2764 124.777 35.2764 124.61 35.2764C124.61 34.953 124.61 34.6297 124.61 34.2965C124.425 34.2898 124.24 34.283 124.049 34.2761C122.878 34.1226 121.979 33.4149 121.252 32.5102C120.636 31.4927 120.691 30.38 120.854 29.2337C121.209 28.0931 121.962 27.3786 122.977 26.7839C123.955 26.4579 125.264 26.4288 126.233 26.8146Z" fill="#28353C"/>
<path d="M253.384 134.515C254.319 134.941 255.011 135.674 255.449 136.597C255.736 137.462 255.75 138.373 255.442 139.234C254.877 140.319 254.157 141.04 252.977 141.432C251.873 141.548 250.834 141.545 249.874 140.942C249.077 140.188 248.49 139.471 248.344 138.357C248.318 137.195 248.435 136.431 249.221 135.553C250.443 134.354 251.667 134.069 253.384 134.515Z" fill="#27343C"/>
<path d="M217.374 158.907C218.219 158.961 218.628 159.435 219.176 160.021C219.364 160.215 219.552 160.408 219.74 160.602C220.033 160.909 220.326 161.216 220.618 161.524C220.902 161.821 221.187 162.115 221.473 162.409C221.56 162.503 221.647 162.596 221.737 162.692C222.008 162.98 222.008 162.98 222.437 163.317C223.182 163.241 223.568 162.721 224.054 162.203C224.242 162.009 224.43 161.815 224.617 161.621C224.911 161.315 225.205 161.008 225.497 160.7C225.779 160.402 226.065 160.108 226.351 159.814C226.438 159.721 226.524 159.628 226.613 159.532C226.864 159.276 226.864 159.276 227.337 158.907C227.806 158.932 227.806 158.932 228.153 159.07C228.153 159.724 228.153 159.724 227.746 160.192C227.56 160.373 227.372 160.552 227.183 160.729C226.981 160.925 226.779 161.121 226.578 161.317C226.257 161.624 225.937 161.93 225.615 162.236C225.306 162.531 224.999 162.829 224.692 163.128C224.595 163.219 224.498 163.31 224.397 163.404C224.097 163.687 224.097 163.687 223.744 164.133C223.816 164.892 224.368 165.309 224.887 165.815C225.034 165.96 225.034 165.96 225.183 166.109C225.495 166.418 225.808 166.725 226.122 167.032C226.334 167.241 226.545 167.451 226.757 167.66C227.276 168.174 227.796 168.685 228.316 169.196C228.155 169.519 228.155 169.519 227.99 169.849C227.228 169.708 226.831 169.243 226.308 168.705C226.211 168.608 226.114 168.51 226.014 168.409C225.705 168.098 225.398 167.784 225.091 167.471C224.882 167.259 224.672 167.047 224.463 166.836C223.949 166.317 223.438 165.797 222.927 165.276C222.242 165.541 221.8 166.049 221.304 166.569C221.116 166.763 220.927 166.956 220.739 167.149C220.443 167.454 220.149 167.759 219.855 168.065C219.571 168.361 219.284 168.655 218.997 168.948C218.91 169.04 218.822 169.133 218.732 169.229C218.481 169.483 218.481 169.483 218.028 169.849C217.64 169.824 217.64 169.824 217.374 169.686C217.314 169.343 217.314 169.343 217.374 168.869C217.685 168.487 217.985 168.163 218.339 167.825C218.486 167.68 218.486 167.68 218.635 167.532C218.948 167.224 219.263 166.919 219.579 166.613C219.792 166.405 220.004 166.196 220.216 165.987C220.737 165.476 221.26 164.967 221.784 164.46C221.519 163.774 221.011 163.333 220.491 162.837C220.297 162.648 220.104 162.46 219.911 162.272C219.606 161.976 219.301 161.681 218.995 161.388C218.699 161.104 218.405 160.817 218.112 160.53C218.02 160.442 217.927 160.355 217.831 160.265C217.577 160.014 217.577 160.014 217.211 159.56C217.236 159.173 217.236 159.173 217.374 158.907Z" fill="#F8F9F9"/>
<path d="M196.796 23.3542C197.926 23.4591 199.009 23.6585 200.116 23.9048C200.294 23.9436 200.471 23.9824 200.653 24.0224C201.232 24.1494 201.811 24.2775 202.39 24.4056C202.796 24.4948 203.202 24.584 203.608 24.6731C206.223 25.248 208.837 25.8302 211.45 26.4138C214.144 27.015 216.842 27.5923 219.543 28.164C221.616 28.603 223.688 29.0473 225.758 29.5047C226.716 29.7165 227.675 29.9243 228.636 30.121C228.9 30.1759 228.9 30.1759 229.17 30.2318C229.494 30.2989 229.819 30.3645 230.144 30.4284C230.285 30.4577 230.425 30.487 230.57 30.5172C230.692 30.5416 230.813 30.5659 230.939 30.5911C231.321 30.7265 231.494 30.8775 231.746 31.1934C232.806 34.3054 232.889 38.3464 231.909 41.4824C231.871 41.6067 231.832 41.7311 231.792 41.8592C230.824 44.8944 229.497 48.6036 227.5 51.1181C227.338 51.1181 227.177 51.1181 227.01 51.1181C227.261 50.2537 227.653 49.5145 228.082 48.7296C229.218 46.6017 230.259 44.4453 231.001 42.1459C231.059 41.9695 231.059 41.9695 231.117 41.7896C231.658 40.0206 231.805 38.2201 231.807 36.3787C231.811 36.2013 231.815 36.0238 231.819 35.8409C231.825 34.2773 231.493 32.8574 231.093 31.3568C230.912 31.3182 230.732 31.2797 230.546 31.24C225.592 30.1815 220.641 29.1141 215.7 27.9986C213.217 27.4379 210.731 26.8937 208.24 26.3657C206.977 26.0978 205.714 25.8287 204.452 25.559C204.304 25.5275 204.157 25.4961 204.005 25.4636C201.596 24.9486 199.193 24.4126 196.796 23.8442C196.796 23.6825 196.796 23.5208 196.796 23.3542Z" fill="#182A3E"/>
<path d="M184.221 80.025C184.329 80.025 184.437 80.025 184.548 80.025C184.592 80.1813 184.592 80.1813 184.637 80.3408C186.575 87.1568 188.768 92.4777 195 96.3567C194.425 96.8365 193.841 97.231 193.194 97.6064C193.1 97.6614 193.005 97.7163 192.908 97.7729C192.602 97.9513 192.295 98.1288 191.989 98.3063C191.774 98.431 191.56 98.5557 191.346 98.6806C191.022 98.8696 190.697 99.0586 190.373 99.2473C189.439 99.7903 188.509 100.338 187.579 100.889C187.436 100.974 187.292 101.059 187.144 101.146C186.858 101.316 186.571 101.485 186.285 101.655C185.543 102.094 184.8 102.532 184.058 102.971C183.758 103.148 183.459 103.325 183.159 103.502C182.561 103.856 181.962 104.209 181.363 104.563C181.215 104.651 181.066 104.739 180.914 104.829C180.615 105.005 180.316 105.182 180.017 105.358C179.259 105.807 178.5 106.255 177.741 106.704C177.434 106.885 177.128 107.066 176.821 107.248C176.671 107.336 176.522 107.425 176.368 107.516C175.451 108.057 174.534 108.597 173.616 109.136C172.665 109.694 171.718 110.259 170.774 110.828C169.89 111.359 169.002 111.882 168.113 112.402C167.528 112.744 166.947 113.09 166.37 113.445C166.258 113.513 166.146 113.582 166.031 113.652C165.819 113.782 165.607 113.913 165.396 114.045C164.677 114.485 164.677 114.485 164.133 114.485C164.133 114.323 164.133 114.161 164.133 113.995C164.374 113.8 164.374 113.8 164.714 113.611C164.84 113.54 164.966 113.469 165.095 113.396C165.232 113.321 165.37 113.246 165.511 113.168C165.798 113.007 166.084 112.845 166.37 112.684C166.516 112.603 166.661 112.521 166.811 112.438C167.434 112.087 168.05 111.725 168.665 111.361C168.78 111.293 168.896 111.226 169.014 111.156C169.717 110.742 170.417 110.323 171.115 109.902C172.323 109.173 173.541 108.461 174.759 107.748C176.629 106.653 178.496 105.554 180.361 104.451C181.103 104.012 181.845 103.573 182.588 103.134C182.887 102.957 183.187 102.78 183.486 102.604C185.283 101.542 185.283 101.542 185.732 101.276C186.03 101.1 186.328 100.924 186.627 100.748C187.393 100.295 188.16 99.8419 188.927 99.3902C191.526 98.0553 191.526 98.0553 193.857 96.3567C193.752 96.2969 193.647 96.2371 193.538 96.1755C188.44 93.1207 185.95 87.713 184.482 82.1721C184.397 81.8653 184.295 81.563 184.19 81.262C184.039 80.7809 184.08 80.5036 184.221 80.025Z" fill="#17283C"/>
<path d="M150.741 137.023C168.958 137.023 187.174 137.023 205.942 137.023C205.942 137.184 205.942 137.346 205.942 137.513C187.726 137.513 169.51 137.513 150.741 137.513C150.741 137.351 150.741 137.189 150.741 137.023Z" fill="#1A2C40"/>
<path d="M222.927 58.7939C223.089 58.9017 223.25 59.0095 223.417 59.1206C223.366 59.2534 223.314 59.3863 223.261 59.5231C222.534 61.4706 221.861 63.5617 221.784 65.6532C221.775 65.8638 221.767 66.0743 221.758 66.2912C221.699 68.5421 222.038 70.6647 222.6 72.8392C220.995 72.6699 219.45 72.3254 217.881 71.9554C216.327 71.5898 214.77 71.2457 213.21 70.91C213.084 70.8828 212.957 70.8556 212.827 70.8276C211.893 70.6265 210.959 70.4262 210.025 70.2261C209.744 70.1658 209.463 70.1056 209.182 70.0453C208.464 69.8916 207.747 69.7379 207.029 69.5842C206.021 69.368 205.012 69.1518 204.003 68.9356C203.457 68.8187 202.912 68.7019 202.366 68.5852C201.602 68.4215 200.837 68.2574 200.073 68.0928C199.95 68.0663 199.827 68.0399 199.701 68.0127C197.706 67.5824 195.717 67.1313 193.729 66.6719C192.171 66.312 190.611 65.967 189.039 65.67C188.171 65.5049 188.171 65.5049 187.814 65.3266C187.814 65.1649 187.814 65.0032 187.814 64.8367C189.406 65.0519 190.962 65.3717 192.529 65.7227C193.113 65.8534 193.697 65.9825 194.28 66.1119C194.59 66.1804 194.899 66.2491 195.209 66.3178C196.948 66.7038 198.689 67.082 200.43 67.4599C200.748 67.529 201.066 67.5981 201.384 67.6671C203.483 68.1231 205.583 68.5773 207.683 69.0308C209.83 69.4945 211.975 69.9623 214.121 70.4328C214.912 70.6063 215.704 70.779 216.495 70.9506C216.976 71.0547 217.456 71.159 217.936 71.2634C218.164 71.3129 218.392 71.3623 218.62 71.4115C218.937 71.4799 219.253 71.5487 219.569 71.6175C219.749 71.6564 219.929 71.6953 220.114 71.7354C220.677 71.8679 221.229 72.0229 221.784 72.1859C221.75 72.0714 221.717 71.9568 221.682 71.8389C221.616 71.6064 221.616 71.6064 221.549 71.3693C221.505 71.2177 221.462 71.0662 221.417 70.91C220.463 66.8752 221.283 62.5321 222.927 58.7939Z" fill="#1A2C40"/>
<path d="M237.299 110.402C237.461 110.402 237.622 110.402 237.789 110.402C236.587 116.337 235.154 122.585 231.256 127.387C231.085 127.599 231.085 127.599 230.91 127.815C229.953 128.94 228.856 129.797 227.663 130.653C227.534 130.751 227.405 130.848 227.272 130.949C226.939 131.184 226.939 131.184 226.357 131.47C225.445 131.278 224.69 130.759 223.907 130.276C223.615 130.098 223.323 129.92 223.031 129.743C222.88 129.651 222.729 129.559 222.573 129.464C221.814 129.003 221.049 128.552 220.283 128.101C220.132 128.012 219.981 127.923 219.825 127.831C218.816 127.236 217.806 126.642 216.796 126.048C215.71 125.409 214.624 124.768 213.539 124.126C212.764 123.668 211.989 123.21 211.212 122.754C210.325 122.233 209.439 121.708 208.555 121.181C208.42 121.1 208.284 121.02 208.144 120.937C207.77 120.714 207.397 120.489 207.024 120.262C206.913 120.197 206.802 120.131 206.688 120.063C206.387 119.878 206.387 119.878 205.942 119.548C205.942 119.386 205.942 119.224 205.942 119.058C206.558 119.288 207.112 119.571 207.681 119.9C207.858 120.002 208.034 120.104 208.216 120.209C208.402 120.318 208.588 120.426 208.78 120.538C208.974 120.65 209.168 120.763 209.362 120.875C210.525 121.55 211.683 122.234 212.834 122.93C214.078 123.682 215.333 124.415 216.585 125.154C217.027 125.415 217.469 125.676 217.91 125.937C219.239 126.724 220.57 127.509 221.903 128.29C222.01 128.353 222.118 128.416 222.229 128.481C222.763 128.794 223.298 129.106 223.832 129.419C224.028 129.533 224.224 129.648 224.419 129.762C224.679 129.914 224.679 129.914 224.943 130.068C225.256 130.255 225.564 130.451 225.867 130.653C227.848 130.498 229.841 128.088 231.068 126.686C231.707 125.882 232.227 125.017 232.726 124.121C232.78 124.026 232.833 123.931 232.889 123.834C234.784 120.448 235.653 116.572 236.646 112.852C236.721 112.57 236.797 112.289 236.873 112.007C237.016 111.472 237.158 110.937 237.299 110.402Z" fill="#16283C"/>
<path d="M160.54 67.123C160.32 67.6496 160.127 67.8828 159.629 68.1584C159.509 68.2264 159.388 68.2944 159.264 68.3644C159.133 68.4365 159.001 68.5085 158.866 68.5827C158.582 68.7426 158.298 68.9028 158.014 69.0631C157.866 69.1465 157.717 69.2299 157.564 69.3158C156.818 69.7383 156.082 70.1763 155.345 70.6139C155.041 70.7939 154.737 70.9738 154.433 71.1536C154.282 71.2433 154.13 71.3329 153.974 71.4253C153.224 71.8699 152.472 72.3136 151.721 72.7575C150.659 73.385 149.597 74.0127 148.535 74.6406C148.233 74.8191 147.931 74.9975 147.629 75.1758C146.918 75.595 146.208 76.0153 145.5 76.4385C145.307 76.5535 145.307 76.5535 145.11 76.6709C144.869 76.8142 144.628 76.9582 144.388 77.1027C143.592 77.5753 143.592 77.5753 143.229 77.5753C143.627 78.0037 144.067 78.3226 144.545 78.6573C149.842 82.4885 151.748 88.3481 153.354 94.3969C153.425 94.6601 153.425 94.6601 153.497 94.9286C153.542 95.1007 153.587 95.2728 153.633 95.4502C153.694 95.6819 153.694 95.6819 153.756 95.9182C153.843 96.3495 153.861 96.7348 153.844 97.1733C153.682 97.1733 153.521 97.1733 153.354 97.1733C153.31 96.9912 153.31 96.9912 153.265 96.8053C150.794 86.4728 150.794 86.4728 143.78 78.8512C143.433 78.6436 143.086 78.436 142.739 78.2286C142.519 78.0671 142.301 77.9041 142.085 77.7386C142.229 77.6537 142.229 77.6537 142.376 77.5671C144.644 76.2307 144.644 76.2307 146.903 74.8806C148.886 73.6873 150.882 72.5141 152.878 71.3438C152.977 71.2857 153.076 71.2276 153.178 71.1678C153.683 70.8719 154.188 70.5763 154.694 70.281C155.645 69.7243 156.595 69.165 157.54 68.5974C157.706 68.498 157.872 68.3986 158.043 68.2962C158.353 68.1107 158.662 67.9242 158.97 67.7368C159.107 67.6553 159.243 67.5738 159.383 67.4899C159.56 67.383 159.56 67.383 159.74 67.2739C160.05 67.123 160.05 67.123 160.54 67.123Z" fill="#16273B"/>
<path d="M257.06 30.3768C257.716 30.6492 258.209 31.0258 258.693 31.5405C258.955 32.2934 258.963 33.0194 258.857 33.8065C258.561 34.3781 258.561 34.3781 258.203 34.7864C258.119 34.8841 258.035 34.9817 257.948 35.0824C257.368 35.5619 256.602 35.4934 255.886 35.5315C255.764 35.5386 255.642 35.5456 255.515 35.5529C255.214 35.5702 254.912 35.5866 254.61 35.603C254.59 35.4773 254.57 35.3516 254.55 35.2221C254.471 34.7558 254.471 34.7558 254.11 34.3475C253.68 33.6111 253.659 33.008 253.794 32.1733C254.491 30.7786 255.541 30.1616 257.06 30.3768Z" fill="#28353D"/>
<path d="M138.819 152.211C143.505 152.196 148.191 152.184 152.878 152.177C155.054 152.174 157.229 152.169 159.405 152.162C161.302 152.155 163.198 152.151 165.094 152.15C166.099 152.149 167.103 152.147 168.107 152.142C169.052 152.138 169.997 152.136 170.942 152.137C171.289 152.137 171.636 152.136 171.983 152.133C172.457 152.13 172.931 152.131 173.404 152.132C173.541 152.131 173.679 152.129 173.82 152.127C174.75 152.136 175.29 152.329 176.055 152.864C176.645 153.596 177.014 154.444 177.403 155.294C177.462 155.422 177.521 155.55 177.583 155.682C177.727 155.994 177.871 156.307 178.015 156.621C177.907 156.621 177.799 156.621 177.688 156.621C177.635 156.728 177.581 156.836 177.525 156.947C177.481 156.853 177.436 156.758 177.391 156.66C177.186 156.227 176.978 155.796 176.77 155.365C176.7 155.216 176.63 155.067 176.559 154.914C176.488 154.769 176.418 154.624 176.345 154.475C176.282 154.343 176.218 154.21 176.153 154.073C175.753 153.472 175.305 152.955 174.585 152.788C174.196 152.759 173.814 152.755 173.424 152.76C173.276 152.759 173.128 152.757 172.975 152.756C172.479 152.752 171.983 152.754 171.488 152.757C171.132 152.755 170.776 152.753 170.42 152.751C169.455 152.747 168.49 152.747 167.524 152.749C166.515 152.749 165.507 152.745 164.498 152.741C162.587 152.735 160.677 152.733 158.766 152.733C156.591 152.732 154.416 152.727 152.241 152.721C147.767 152.709 143.293 152.703 138.819 152.701C138.819 152.539 138.819 152.378 138.819 152.211Z" fill="#1B262F"/>
<path d="M218.191 76.7587C218.47 76.9067 218.744 77.0638 219.013 77.2289C219.248 77.3717 219.248 77.3717 219.488 77.5173C219.656 77.6207 219.824 77.724 219.998 77.8305C220.364 78.0534 220.731 78.276 221.099 78.4984C221.242 78.5852 221.242 78.5852 221.388 78.6737C222.476 79.3331 223.574 79.9752 224.672 80.6171C224.874 80.7348 225.075 80.8525 225.276 80.9703C225.573 81.1437 225.869 81.3171 226.165 81.4904C227.509 82.2764 228.85 83.0653 230.188 83.8614C230.471 84.0297 230.755 84.1974 231.038 84.3647C231.455 84.6112 231.871 84.8594 232.287 85.1083C232.412 85.1817 232.537 85.2552 232.666 85.3308C233.524 85.8484 233.524 85.8484 233.706 86.3944C233.104 86.3008 232.67 86.1399 232.15 85.8253C232.009 85.741 231.868 85.6567 231.723 85.5698C231.572 85.4782 231.422 85.3865 231.266 85.292C230.942 85.0972 230.617 84.9024 230.292 84.7076C230.127 84.6077 229.961 84.5079 229.79 84.4049C229.03 83.9475 228.265 83.4971 227.5 83.0464C227.2 82.8695 226.901 82.6926 226.602 82.5156C226.453 82.428 226.305 82.3405 226.153 82.2502C225.703 81.9848 225.254 81.7195 224.805 81.4541C224.657 81.3664 224.508 81.2787 224.355 81.1883C224.058 81.0127 223.761 80.8371 223.464 80.6615C222.681 80.1988 221.898 79.7361 221.115 79.2735C220.952 79.1772 220.789 79.0809 220.621 78.9817C220.308 78.7973 219.996 78.6129 219.684 78.4286C219.543 78.3453 219.402 78.262 219.257 78.1763C219.126 78.0998 218.995 78.0233 218.86 77.9445C218.589 77.7818 218.327 77.605 218.069 77.4235C217.551 77.1777 217.264 77.2498 216.721 77.412C213.48 79.2543 211.37 82.2669 209.862 85.5778C209.734 85.8456 209.734 85.8456 209.604 86.1188C208.796 87.8884 208.279 89.7556 207.739 91.6205C207.577 91.5666 207.415 91.5127 207.249 91.4572C207.896 87.8477 209.411 83.8067 211.822 81.005C211.935 80.8694 212.048 80.7338 212.165 80.5941C216.187 75.9536 216.187 75.9536 218.191 76.7587Z" fill="#14263A"/>
<path d="M150.251 86.2311C150.741 86.3944 150.741 86.3944 151.029 86.9583C151.136 87.2184 151.241 87.4796 151.343 87.7418C151.4 87.8837 151.456 88.0255 151.514 88.1717C152.286 90.1966 152.814 92.301 153.354 94.3969C153.403 94.5784 153.451 94.7599 153.501 94.9468C153.568 95.2051 153.568 95.2051 153.637 95.4687C153.677 95.6205 153.717 95.7722 153.758 95.9286C153.844 96.3557 153.86 96.739 153.844 97.1733C153.683 97.1733 153.521 97.1733 153.354 97.1733C153.325 97.0519 153.295 96.9304 153.265 96.8053C152.112 92.0035 152.112 92.0035 150.431 87.3692C150.251 86.8843 150.251 86.8843 150.251 86.2311Z" fill="#1C2D41"/>
<path d="M267.349 32.5C267.926 32.7415 268.257 33.0619 268.666 33.5309C268.83 33.7169 268.83 33.7169 268.998 33.9067C269.31 34.2973 269.576 34.6654 269.799 35.1131C269.745 35.2747 269.691 35.4364 269.636 35.603C269.027 35.4002 268.94 35.1924 268.594 34.6639C268.168 34.0321 267.749 33.5017 267.186 32.9899C267.24 32.8283 267.294 32.6666 267.349 32.5Z" fill="#37434A"/>
<path d="M32.01 150.741C32.1178 150.795 32.2256 150.849 32.3366 150.904C32.3366 151.066 32.3366 151.228 32.3366 151.394C31.977 151.672 31.6288 151.912 31.2445 152.15C31.1423 152.216 31.04 152.283 30.9347 152.351C30.3728 152.707 29.9079 152.953 29.2336 153.028C29.1797 152.866 29.1258 152.704 29.0703 152.538C29.2278 152.449 29.3853 152.36 29.5475 152.269C29.7559 152.151 29.9643 152.033 30.1727 151.915C30.2763 151.857 30.3799 151.799 30.4866 151.739C31.0216 151.435 31.5282 151.127 32.01 150.741Z" fill="#3A464D"/>
<path d="M125.1 37.5627C125.397 37.5959 125.397 37.5959 125.754 37.7261C126.003 38.0706 126.003 38.0706 126.233 38.5018C126.612 39.1736 126.974 39.6675 127.55 40.1758C127.496 40.3375 127.442 40.4992 127.387 40.6658C126.412 40.2456 125.799 39.3886 125.274 38.4916C125.1 38.0527 125.1 38.0527 125.1 37.5627Z" fill="#354148"/>
<path d="M25.804 153.844C25.804 154.006 25.804 154.168 25.804 154.334C24.5936 154.567 23.4443 154.71 22.2111 154.661C22.2111 154.445 22.2111 154.23 22.2111 154.007C22.5955 153.98 22.98 153.953 23.3645 153.926C23.5786 153.911 23.7927 153.895 24.0133 153.88C24.6119 153.847 25.2046 153.838 25.804 153.844Z" fill="#3D4850"/>
<path d="M268.982 142.575C269.144 142.575 269.306 142.575 269.472 142.575C269.561 143.882 269.245 144.938 268.819 146.168C268.657 146.168 268.496 146.168 268.329 146.168C268.404 145.602 268.475 145.078 268.656 144.535C268.705 144.067 268.739 143.599 268.773 143.13C268.819 142.739 268.819 142.739 268.982 142.575Z" fill="#38444B"/>
<path d="M38.0527 138.492C38.2144 138.492 38.376 138.492 38.5426 138.492C38.5811 139.737 38.516 140.875 38.216 142.085C38.0543 142.085 37.8926 142.085 37.726 142.085C37.6844 140.856 37.8431 139.703 38.0527 138.492Z" fill="#3C474E"/>
<path d="M32.6633 126.244C33.3136 126.506 33.7596 126.959 34.2454 127.448C34.3268 127.527 34.4082 127.606 34.492 127.687C34.9102 128.104 35.215 128.417 35.2764 129.02C34.6231 129.02 34.6231 129.02 34.3437 128.774C34.254 128.663 34.1643 128.553 34.0719 128.438C33.9744 128.32 33.877 128.202 33.7765 128.08C33.6787 127.959 33.5808 127.838 33.4799 127.714C33.2934 127.495 33.1063 127.277 32.9185 127.06C32.7804 126.899 32.6423 126.737 32.5 126.57C32.5539 126.462 32.6078 126.355 32.6633 126.244Z" fill="#38444B"/>
<path d="M26.2939 122.977C27.5552 123.065 28.7623 123.558 29.8869 124.121C29.833 124.282 29.7791 124.444 29.7236 124.61C28.958 124.491 28.2686 124.224 27.5494 123.947C27.4285 123.901 27.3075 123.855 27.1829 123.808C26.8864 123.695 26.5901 123.581 26.2939 123.467C26.2939 123.306 26.2939 123.144 26.2939 122.977Z" fill="#3C474E"/>
<path d="M270.126 39.0326C270.287 39.0326 270.449 39.0326 270.616 39.0326C270.684 40.3744 270.571 41.5723 269.962 42.7889C269.801 42.735 269.639 42.6811 269.472 42.6256C269.502 42.4828 269.502 42.4828 269.532 42.3372C269.757 41.2397 269.947 40.1384 270.126 39.0326Z" fill="#3A464D"/>
<path d="M15.3517 152.538C15.9288 152.637 16.4349 152.791 16.9746 153.017C17.5708 153.262 18.1662 153.487 18.7813 153.681C18.7274 153.842 18.6735 154.004 18.618 154.171C17.7475 154.082 17.0536 153.869 16.2601 153.507C16.1562 153.461 16.0523 153.415 15.9453 153.368C15.6924 153.256 15.4403 153.142 15.1884 153.028C15.2422 152.866 15.2961 152.704 15.3517 152.538Z" fill="#3A464D"/>
<path d="M9.96224 128.203C10.1239 128.257 10.2856 128.311 10.4522 128.367C10.1944 128.908 9.89344 129.411 9.57436 129.918C9.47878 130.072 9.38321 130.225 9.28473 130.383C8.99733 130.795 8.69554 131.128 8.32907 131.47C8.22129 131.416 8.1135 131.362 8.00244 131.307C8.23299 130.676 8.52849 130.136 8.89047 129.571C8.98795 129.418 9.08542 129.264 9.18585 129.106C9.42483 128.762 9.65425 128.484 9.96224 128.203Z" fill="#344047"/>
<path d="M266.859 45.402C267.227 45.453 267.227 45.453 267.512 45.5653C266.556 46.6408 265.471 47.0643 264.083 47.3618C264.083 47.1462 264.083 46.9306 264.083 46.7085C264.228 46.6552 264.374 46.602 264.524 46.5471C264.811 46.4401 264.811 46.4401 265.103 46.3308C265.293 46.2607 265.482 46.1906 265.678 46.1184C266.142 45.9193 266.463 45.7047 266.859 45.402Z" fill="#364148"/>
<path d="M257.224 45.402C257.933 45.6743 258.593 46.0085 259.265 46.3621C259.675 46.5461 260.047 46.6381 260.49 46.7085C260.49 46.9241 260.49 47.1397 260.49 47.3618C259.672 47.2725 259.025 46.9957 258.305 46.6166C258.149 46.536 258.149 46.536 257.988 46.4536C257.733 46.322 257.478 46.1888 257.224 46.0552C257.224 45.8397 257.224 45.6241 257.224 45.402Z" fill="#344047"/>
<path d="M131.796 28.4171C131.796 28.5788 131.796 28.7404 131.796 28.907C131.698 28.9131 131.599 28.9192 131.497 28.9255C130.454 29.0073 129.519 29.2256 128.53 29.5603C128.53 30.0453 128.53 30.5304 128.53 31.0301C128.476 31.0301 128.422 31.0301 128.367 31.0301C128.354 30.7411 128.344 30.4518 128.336 30.1625C128.331 30.0015 128.325 29.8404 128.319 29.6745C128.367 29.2337 128.367 29.2337 128.577 28.9427C129.496 28.2881 130.723 28.3775 131.796 28.4171Z" fill="#3A464D"/>
<path d="M256.407 150.251C256.842 150.328 257.245 150.422 257.662 150.568C258.376 150.797 259.1 150.931 259.837 151.068C259.837 151.283 259.837 151.499 259.837 151.721C258.594 151.561 257.523 151.322 256.407 150.741C256.407 150.579 256.407 150.418 256.407 150.251Z" fill="#364148"/>
<path d="M9.79894 148.128C10.2889 148.128 10.2889 148.128 10.5524 148.379C10.6897 148.548 10.6897 148.548 10.8299 148.72C11.1998 149.165 11.5723 149.579 11.9935 149.976C12.412 150.414 12.412 150.414 12.412 150.904C11.7 150.832 11.3123 150.361 10.8401 149.873C10.7601 149.794 10.6801 149.715 10.5977 149.633C10.1872 149.216 9.85584 148.837 9.63562 148.291C9.68951 148.237 9.74341 148.184 9.79894 148.128Z" fill="#364249"/>
<path d="M251.834 144.862C252.135 144.884 252.135 144.884 252.487 145.025C252.713 145.447 252.713 145.447 252.906 145.974C253.143 146.614 253.384 147.097 253.794 147.638C253.743 148.006 253.743 148.006 253.631 148.291C252.616 147.422 251.94 146.208 251.834 144.862Z" fill="#344047"/>
<path d="M268.166 138.166C269.029 139.244 269.411 140.386 269.309 141.759C269.147 141.759 268.986 141.759 268.819 141.759C268.776 141.601 268.732 141.444 268.688 141.282C268.63 141.075 268.572 140.869 268.513 140.656C268.456 140.452 268.399 140.247 268.341 140.036C268.189 139.494 268.189 139.494 267.981 139.102C267.839 138.819 267.839 138.819 267.839 138.329C267.947 138.275 268.055 138.221 268.166 138.166Z" fill="#354148"/>
<path d="M258.857 133.92C258.822 134.231 258.822 134.231 258.693 134.573C258.36 134.721 258.36 134.721 257.938 134.818C257.167 135.018 256.595 135.306 255.917 135.716C255.809 135.716 255.701 135.716 255.59 135.716C255.536 135.554 255.483 135.393 255.427 135.226C256.533 134.505 257.501 133.92 258.857 133.92Z" fill="#364248"/>
<path d="M15.8417 123.794C15.8956 123.956 15.9495 124.117 16.005 124.284C15.5846 124.558 15.1622 124.83 14.7393 125.1C14.6201 125.178 14.501 125.256 14.3782 125.337C14.2624 125.41 14.1466 125.484 14.0273 125.56C13.9213 125.628 13.8152 125.697 13.7059 125.767C13.3919 125.917 13.3919 125.917 12.7386 125.917C12.9813 125.207 13.5093 124.937 14.1268 124.58C14.2724 124.493 14.2724 124.493 14.4209 124.404C15.4468 123.794 15.4468 123.794 15.8417 123.794Z" fill="#37424A"/>
<path d="M137.839 35.7664C138.055 35.7664 138.27 35.7664 138.492 35.7664C138.286 37.0642 138.033 38.4406 137.023 39.3593C136.915 39.1976 136.807 39.036 136.696 38.8694C136.794 38.7212 136.891 38.573 136.992 38.4203C137.469 37.5973 137.639 36.6878 137.839 35.7664Z" fill="#364149"/>
<path d="M135.226 29.5603C135.942 29.7875 136.321 30.116 136.818 30.6729C136.946 30.8121 137.073 30.9512 137.204 31.0946C137.519 31.5295 137.619 31.8086 137.676 32.3367C137.514 32.3906 137.352 32.4445 137.186 32.5C137.128 32.4053 137.071 32.3105 137.012 32.2129C136.451 31.3265 135.89 30.6951 135.063 30.0503C135.117 29.8886 135.171 29.7269 135.226 29.5603Z" fill="#354148"/>
<path d="M260.49 30.7035C261.027 30.6987 261.565 30.6958 262.103 30.6933C262.256 30.6919 262.409 30.6905 262.566 30.6891C262.786 30.6883 262.786 30.6883 263.01 30.6875C263.212 30.6862 263.212 30.6862 263.419 30.6849C263.756 30.7035 263.756 30.7035 264.083 30.8668C264.083 31.0285 264.083 31.1902 264.083 31.3567C262.843 31.3567 261.604 31.3567 260.327 31.3567C260.38 31.1412 260.434 30.9256 260.49 30.7035Z" fill="#333F46"/>
<path d="M36.7462 132.123C37.0505 132.154 37.0505 132.154 37.3995 132.286C37.9638 133.29 38.1418 134.42 38.2161 135.553C38.0544 135.553 37.8927 135.553 37.7261 135.553C37.5616 135.073 37.3987 134.593 37.2362 134.113C37.1894 133.977 37.1427 133.841 37.0945 133.701C37.0282 133.504 37.0282 133.504 36.9606 133.304C36.9195 133.183 36.8785 133.063 36.8362 132.938C36.7462 132.613 36.7462 132.613 36.7462 132.123Z" fill="#37434A"/>
<path d="M266.043 148.945C266.204 148.998 266.366 149.052 266.533 149.108C266.291 149.841 265.72 150.11 265.083 150.465C264.981 150.526 264.879 150.587 264.774 150.65C264.018 151.079 264.018 151.079 263.52 151.024C263.394 150.965 263.394 150.965 263.266 150.904C263.266 150.797 263.266 150.689 263.266 150.578C263.398 150.515 263.53 150.451 263.666 150.386C263.841 150.301 264.015 150.216 264.195 150.129C264.368 150.045 264.54 149.962 264.718 149.876C265.236 149.614 265.236 149.614 265.668 149.228C265.792 149.134 265.915 149.041 266.043 148.945Z" fill="#303C44"/>
<path d="M262.45 133.92C263.618 134.108 264.629 134.46 265.553 135.226C265.68 135.585 265.68 135.585 265.716 135.879C264.935 135.57 264.162 135.245 263.388 134.919C263.079 134.793 262.766 134.678 262.45 134.573C262.45 134.357 262.45 134.142 262.45 133.92Z" fill="#323E45"/>
<path d="M6.69592 141.759C6.85761 141.759 7.01929 141.759 7.18587 141.759C7.35039 142.238 7.51326 142.718 7.67582 143.198C7.72256 143.334 7.7693 143.47 7.81745 143.61C7.86166 143.741 7.90587 143.872 7.95142 144.007C7.99247 144.128 8.03352 144.249 8.07582 144.373C8.16577 144.698 8.16577 144.698 8.16577 145.188C8.00409 145.188 7.8424 145.188 7.67582 145.188C6.76847 142.992 6.76847 142.992 6.69592 141.759Z" fill="#333F47"/>
<path d="M22.8643 122.324C22.8643 122.54 22.8643 122.755 22.8643 122.977C21.0858 123.058 21.0858 123.058 19.2714 123.141C19.2714 122.979 19.2714 122.817 19.2714 122.651C19.717 122.596 20.1627 122.541 20.6085 122.487C20.7341 122.472 20.8597 122.456 20.9891 122.44C21.6181 122.365 22.2293 122.304 22.8643 122.324Z" fill="#354148"/>
<path d="M253.794 39.1959C253.955 39.1959 254.117 39.1959 254.284 39.1959C254.302 39.3067 254.32 39.4174 254.338 39.5315C254.519 40.5916 254.768 41.6031 255.1 42.6256C254.939 42.6795 254.777 42.7334 254.61 42.7889C254.504 42.5578 254.399 42.3264 254.294 42.0948C254.235 41.9659 254.176 41.8371 254.116 41.7044C253.859 41.0803 253.774 40.5645 253.784 39.89C253.785 39.7595 253.787 39.629 253.788 39.4945C253.79 39.396 253.792 39.2974 253.794 39.1959Z" fill="#323E45"/>
<path d="M6.69588 134.736C6.85756 134.736 7.01924 134.736 7.18583 134.736C7.10361 135.884 7.01567 137.026 6.85919 138.166C6.69751 138.166 6.53583 138.166 6.36924 138.166C6.33262 136.963 6.38538 135.9 6.69588 134.736Z" fill="#333F47"/>
<path d="M134.246 41.319C134.246 41.4268 134.246 41.5346 134.246 41.6456C133.052 42.2186 131.961 42.1852 130.653 42.1356C130.653 41.9739 130.653 41.8122 130.653 41.6456C130.846 41.6336 130.846 41.6336 131.042 41.6214C132.174 41.5496 132.174 41.5496 133.276 41.2986C133.756 41.1557 133.756 41.1557 134.246 41.319Z" fill="#26333B"/>
<path d="M208.229 88.6809C208.282 88.6809 208.336 88.6809 208.392 88.6809C208.428 89.4307 208.316 89.9963 208.065 90.702C208.005 90.875 207.944 91.0481 207.882 91.2263C207.811 91.4215 207.811 91.4215 207.739 91.6206C207.577 91.5667 207.415 91.5128 207.249 91.4573C207.611 89.2981 207.611 89.2981 208.229 88.6809Z" fill="#192A3E"/>
<path d="M214.271 78.3918C214.379 78.4457 214.487 78.4996 214.598 78.5552C214.122 79.4785 213.423 80.2906 212.485 80.7497C212.318 80.7952 212.318 80.7952 212.148 80.8416C212.411 80.1763 212.889 79.7367 213.393 79.2493C213.478 79.1665 213.562 79.0838 213.649 78.9985C213.855 78.7956 214.063 78.5936 214.271 78.3918Z" fill="#0D2035"/>
<path d="M236.319 115.628C236.354 116.476 236.252 117.119 235.992 117.914C235.831 117.807 235.669 117.699 235.502 117.588C235.556 117.261 235.61 116.934 235.666 116.608C235.689 116.456 235.713 116.305 235.737 116.149C235.768 116.031 235.798 115.913 235.829 115.791C236.156 115.628 236.156 115.628 236.319 115.628Z" fill="#1F3044"/>
<path d="M8.65571 129.837C8.81739 129.837 8.97907 129.837 9.14566 129.837C9.07511 130.613 8.92882 130.967 8.32907 131.47C8.22129 131.416 8.1135 131.362 8.00244 131.307C8.19826 130.803 8.40698 130.316 8.65571 129.837Z" fill="#3C474E"/>
<path d="M134.246 41.3191C134.246 41.4269 134.246 41.5346 134.246 41.6457C133.438 41.8882 133.438 41.8882 132.613 42.1357C132.613 41.9201 132.613 41.7045 132.613 41.4824C133.695 41.1353 133.695 41.1353 134.246 41.3191Z" fill="#334047"/>
<path d="M228.643 83.1281C229.229 83.3457 229.76 83.5904 230.276 83.9446C230.276 84.0524 230.276 84.1602 230.276 84.2713C229.56 84.1879 229.078 84.0227 228.48 83.618C228.534 83.4563 228.588 83.2946 228.643 83.1281Z" fill="#0F2136"/>
<path d="M230.276 84.108C230.683 84.2369 231.039 84.4077 231.42 84.598C231.366 84.8136 231.312 85.0291 231.256 85.2512C230.771 84.9818 230.286 84.7123 229.786 84.4347C229.948 84.3269 230.11 84.2191 230.276 84.108Z" fill="#1B2C40"/>
<path d="M169.359 110.892C169.467 110.946 169.575 111 169.686 111.055C169.501 111.593 169.36 111.708 168.849 111.994C168.616 112.095 168.616 112.095 168.379 112.198C168.325 111.983 168.272 111.767 168.216 111.545C169.077 111.019 169.077 111.019 169.359 110.892Z" fill="#1E2F42"/>
<path d="M189.284 99.6231C188.821 100.155 188.518 100.361 187.814 100.44C187.977 99.9497 187.977 99.9497 188.365 99.6639C188.794 99.4597 188.794 99.4597 189.284 99.6231Z" fill="#0D1F34"/>
<path d="M190.1 98.6432C190.208 98.6971 190.316 98.751 190.427 98.8065C190.248 99.2954 190.153 99.4346 189.672 99.6639C189.544 99.7043 189.416 99.7448 189.284 99.7864C189.176 99.6247 189.068 99.463 188.957 99.2965C189.819 98.7701 189.819 98.7701 190.1 98.6432Z" fill="#1B2C40"/>
<path d="M237.299 110.402C237.461 110.402 237.622 110.402 237.789 110.402C237.747 110.617 237.702 110.831 237.656 111.045C237.632 111.164 237.607 111.284 237.582 111.407C237.542 111.506 237.503 111.606 237.462 111.709C237.301 111.762 237.139 111.816 236.972 111.872C237.08 111.387 237.188 110.902 237.299 110.402Z" fill="#0A1D32"/>
<path d="M146.658 74.9623C146.766 75.0162 146.874 75.0701 146.985 75.1256C146.806 75.6144 146.711 75.7537 146.23 75.983C146.102 76.0234 145.974 76.0639 145.842 76.1055C146.046 75.5089 146.115 75.3247 146.658 74.9623Z" fill="#1C2E41"/>
<path d="M150.251 72.8391C150.359 72.893 150.467 72.9469 150.578 73.0024C150.399 73.4913 150.304 73.6306 149.822 73.8598C149.694 73.9003 149.566 73.9407 149.435 73.9823C149.639 73.3857 149.707 73.2016 150.251 72.8391Z" fill="#1C2D41"/>
<path d="M168.379 111.708C168.349 112.015 168.349 112.015 168.216 112.362C167.797 112.566 167.797 112.566 167.399 112.688C167.751 111.708 167.751 111.708 168.379 111.708Z" fill="#0F2136"/>
<path d="M144.535 76.5955C144.372 77.0854 144.372 77.0854 143.882 77.412C143.72 77.3581 143.558 77.3043 143.392 77.2487C143.984 76.5955 143.984 76.5955 144.535 76.5955Z" fill="#0A1D32"/>
<path d="M166.42 112.688C166.527 112.742 166.635 112.796 166.746 112.852C166.692 113.013 166.638 113.175 166.583 113.342C166.164 113.536 166.164 113.536 165.766 113.668C166.052 112.872 166.052 112.872 166.42 112.688Z" fill="#102237"/>
<path d="M184.384 102.073C184.492 102.127 184.6 102.181 184.711 102.236C184.657 102.398 184.603 102.559 184.548 102.726C184.129 102.92 184.129 102.92 183.731 103.053C184.017 102.256 184.017 102.256 184.384 102.073Z" fill="#102337"/>
<path d="M118.333 74.6829C118.497 74.5398 118.513 74.2911 118.37 74.1273C118.227 73.9635 117.979 73.9467 117.815 74.0897L118.333 74.6829ZM122.231 80.4734C122.412 80.3528 122.461 80.1084 122.34 79.9274C122.22 79.7464 121.975 79.6975 121.794 79.818L122.231 80.4734ZM114.916 82.5696C114.887 80.9166 115.109 79.504 115.647 78.2315C116.184 76.9602 117.047 75.8058 118.333 74.6829L117.815 74.0897C116.456 75.2764 115.513 76.5245 114.921 77.9247C114.33 79.3236 114.098 80.8513 114.128 82.5834L114.916 82.5696ZM119.083 85.2755C119.283 83.7698 120.256 81.7891 122.231 80.4734L121.794 79.818C119.62 81.2668 118.53 83.4547 118.302 85.1719L119.083 85.2755Z" fill="#45140A"/>
<path d="M87.796 76.76C88.8521 80.0146 93.3204 85.0304 97.4248 87.2967C99.6885 82.4315 100.584 76.6215 99.6497 73.7414C97.1812 66.1344 85.449 69.5275 87.796 76.76Z" fill="#45140A"/>
<path d="M75.8126 97.0202C82.3901 97.3024 88.7897 93.4037 93.44 89.0786C88.1347 84.1103 80.943 80.1801 76.9345 80.4898C67.2121 81.241 68.0852 96.6888 75.8126 97.0202Z" fill="#FFB503"/>
<path d="M98.6499 89.7969C99.7793 87.4296 100.739 86.2776 102.678 84.35C108.694 91.6882 112.599 95.4865 120.346 101.799C118.15 103.681 116.811 104.543 114.09 105.485C106.932 99.6175 103.463 96.2028 98.6499 89.7969Z" fill="#FFB503"/>
<path d="M94.8252 100.636C95.2879 98.8959 96.3105 95.0683 97.3751 93.5225C101.468 98.4804 105.89 103.179 111.216 106.832C108.462 108.554 105.972 108.534 103.603 108.888C98.6524 105.113 98.1564 104.86 94.8252 100.636Z" fill="#45140A"/>
<path d="M121.611 99.3192C114.278 93.6942 110.61 90.0469 104.682 82.8717C109.481 80.8522 116.273 81.5944 118.247 83.8515C121.71 86.8677 123.765 92.8414 121.611 99.3192Z" fill="#45140A"/>
<path d="M100.232 109.982C98.1579 107.589 96.9534 106.338 94.6739 104.334C93.9542 106.449 93.8274 107.746 94.1282 110.307C96.2625 110.671 97.6291 110.539 100.232 109.982Z" fill="#FFB503"/>
<path d="M113.298 90.2862C114.232 91.2355 116.518 92.1887 120.131 92.2084C119.249 89.3859 118.673 87.714 117.438 86.4589C114.666 83.6431 109.6 86.5291 113.298 90.2862Z" fill="white"/>
<rect x="22.3743" y="226.52" width="267.676" height="33.4799" fill="white"/>
<path d="M92.2531 113.542C88.6648 115.392 84.6087 118.826 84.2705 123.335C84.1727 124.64 83.6053 125.689 83.6053 127.031C83.6053 129.211 84.1832 131.014 85.3423 132.907C86.6476 135.039 88.002 136.521 90.1836 137.748C91.4024 138.434 92.9497 138.517 94.3042 138.654C96.9536 138.922 100.207 139.509 102.823 138.746C106.201 137.761 109.298 134.252 110.99 131.318C111.619 130.227 112.981 127.32 111.988 125.996C110.778 124.383 107.011 123.877 105.225 123.52C102.398 122.955 99.4431 123.188 96.5771 123.188C91.8682 123.188 88.1913 124.686 85.1944 128.509C78.7336 136.752 84.0448 145.46 85.527 154.601C86.1366 158.359 86.0222 161.045 84.8618 164.764C83.9747 167.606 82.8882 171.611 80.501 173.633C76.9293 176.659 69.3349 176.703 65.4596 174.151C63.6409 172.953 62.747 171.419 61.6531 169.568C60.9563 168.389 59.7613 165.142 59.3655 163.806C59.3655 159.56 61.6531 158.09 65.4596 156.596C68.8378 155.27 72.0338 155.316 73.7749 156.596C77.3103 159.196 80.1907 160.698 82.5336 164.69C83.3996 166.165 84.4231 167.721 85.1944 169.235C86.0506 170.916 86.4374 172.57 87.6705 174.077C89.8013 176.681 91.5316 178.698 94.3597 180.655C97.7345 182.99 101.063 185.598 104.671 187.566C107.895 189.325 111.31 190.003 114.871 190.707C119.559 191.635 125.166 192.377 129.912 191.631C134.87 190.852 138.214 186.22 140.814 182.392C142.703 179.611 142.81 177.339 142.81 174.077C142.81 172.259 141.079 172.101 139.595 172.081C136.022 172.033 135.08 171.213 132.573 174.668C129.947 178.286 127.177 181.746 127.177 186.309C127.177 189.734 129.906 192.054 132.573 193.959C138.683 198.324 144.893 200.863 152.271 202.422C159.109 203.868 166.847 203.153 173.816 203.014C178.224 202.926 182.619 200.967 186.825 199.835C192.08 198.422 197.276 196.677 202.495 195.105C207.202 193.687 212.057 192.069 217.019 192.038C222.997 192 229.123 191.674 235.09 192.112C239.538 192.438 244.22 193.597 248.395 195.179C252.026 196.555 253.386 198.01 258.225 199.614C261.551 200.716 261.551 200.308 261.551 204.27C261.551 207.249 259.018 209.235 257.713 210.515C255.934 212.262 251.953 214.151 249.548 214.68C246.917 215.258 242.933 216.313 239.599 215.579C238.976 215.267 235.79 213.475 235.94 213.325" stroke="#242223" stroke-width="0.816583" stroke-linecap="round" stroke-dasharray="6.53 6.53"/>
</svg>
